<mxfile host="65bd71144e">
    <diagram name="Seite-1" id="1UqIFNeRel8w9c3Ury_5">
        <mxGraphModel dx="1304" dy="1060" grid="1" gridSize="10" guides="1" tooltips="1" connect="1" arrows="1" fold="1" page="0" pageScale="1" pageWidth="827" pageHeight="1169" math="0" shadow="0">
            <root>
                <mxCell id="0"/>
                <mxCell id="1" parent="0"/>
                <mxCell id="4" value="" style="rounded=0;whiteSpace=wrap;html=1;fillColor=#FFFFFF;glass=0;strokeColor=default;" parent="1" vertex="1">
                    <mxGeometry x="250" y="136" width="540" height="354" as="geometry"/>
                </mxCell>
                <mxCell id="iihOq3sOjZAMv7ztsFPM-3" value="VPC" style="sketch=0;outlineConnect=0;gradientColor=none;html=1;whiteSpace=wrap;fontSize=12;fontStyle=0;shape=mxgraph.aws4.group;grIcon=mxgraph.aws4.group_vpc;strokeColor=#000000;fillColor=none;verticalAlign=top;align=left;spacingLeft=30;fontColor=#333333;dashed=0;perimeterSpacing=0;strokeWidth=1;" parent="1" vertex="1">
                    <mxGeometry x="349" y="173.5" width="430" height="306" as="geometry"/>
                </mxCell>
                <mxCell id="iihOq3sOjZAMv7ztsFPM-21" value="" style="edgeStyle=orthogonalEdgeStyle;html=1;endArrow=block;elbow=vertical;startArrow=none;endFill=1;strokeColor=#545B64;rounded=0;exitX=1;exitY=0.5;exitDx=0;exitDy=0;entryX=0;entryY=0.5;entryDx=0;entryDy=0;" parent="1" target="50" edge="1">
                    <mxGeometry width="100" relative="1" as="geometry">
                        <mxPoint x="466.9579100145137" y="240.95036284470245" as="sourcePoint"/>
                        <mxPoint x="430" y="245" as="targetPoint"/>
                    </mxGeometry>
                </mxCell>
                <mxCell id="iihOq3sOjZAMv7ztsFPM-40" value="AWS Cloud" style="points=[[0,0],[0.25,0],[0.5,0],[0.75,0],[1,0],[1,0.25],[1,0.5],[1,0.75],[1,1],[0.75,1],[0.5,1],[0.25,1],[0,1],[0,0.75],[0,0.5],[0,0.25]];outlineConnect=0;gradientColor=none;html=1;whiteSpace=wrap;fontSize=12;fontStyle=0;container=1;pointerEvents=0;collapsible=0;recursiveResize=0;shape=mxgraph.aws4.group;grIcon=mxgraph.aws4.group_aws_cloud_alt;strokeColor=#232F3E;fillColor=none;verticalAlign=top;align=left;spacingLeft=30;fontColor=#232F3E;dashed=0;" parent="1" vertex="1">
                    <mxGeometry x="257" y="144" width="523" height="336" as="geometry"/>
                </mxCell>
                <mxCell id="202" value="&lt;p style=&quot;line-height: 70%;&quot;&gt;&lt;span style=&quot;font-size: 8px;&quot;&gt;WAL-G Backup&lt;/span&gt;&lt;/p&gt;" style="text;html=1;strokeColor=none;fillColor=none;align=center;verticalAlign=middle;whiteSpace=wrap;rounded=0;fontColor=#000000;" parent="iihOq3sOjZAMv7ztsFPM-40" vertex="1">
                    <mxGeometry x="271" y="184.6" width="58.92" height="6.65" as="geometry"/>
                </mxCell>
                <mxCell id="203" value="&lt;p style=&quot;line-height: 70%;&quot;&gt;&lt;span style=&quot;font-size: 8px;&quot;&gt;Leader Election&lt;/span&gt;&lt;/p&gt;" style="text;html=1;strokeColor=none;fillColor=none;align=center;verticalAlign=middle;whiteSpace=wrap;rounded=0;fontColor=#000000;" parent="iihOq3sOjZAMv7ztsFPM-40" vertex="1">
                    <mxGeometry x="408" y="180.60000000000002" width="58.92" height="6.65" as="geometry"/>
                </mxCell>
                <mxCell id="3" value="" style="group" parent="1" vertex="1" connectable="0">
                    <mxGeometry x="120" y="272.5" width="60" height="70" as="geometry"/>
                </mxCell>
                <mxCell id="2" value="" style="rounded=1;whiteSpace=wrap;html=1;fillColor=#FFFFFF;" parent="3" vertex="1">
                    <mxGeometry width="60" height="70" as="geometry"/>
                </mxCell>
                <mxCell id="iihOq3sOjZAMv7ztsFPM-18" value="" style="sketch=0;outlineConnect=0;fontColor=#232F3E;gradientColor=none;fillColor=#232F3D;strokeColor=none;dashed=0;verticalLabelPosition=bottom;verticalAlign=top;align=center;html=1;fontSize=12;fontStyle=0;aspect=fixed;pointerEvents=1;shape=mxgraph.aws4.users;" parent="3" vertex="1">
                    <mxGeometry x="6" y="11.25" width="47.5" height="47.5" as="geometry"/>
                </mxCell>
                <mxCell id="10" value="" style="edgeStyle=orthogonalEdgeStyle;html=1;endArrow=block;elbow=vertical;startArrow=none;endFill=1;strokeColor=#545B64;rounded=0;exitX=1;exitY=0.5;exitDx=0;exitDy=0;" parent="1" source="2" edge="1">
                    <mxGeometry width="100" relative="1" as="geometry">
                        <mxPoint x="325.75" y="219.38" as="sourcePoint"/>
                        <mxPoint x="270" y="308" as="targetPoint"/>
                    </mxGeometry>
                </mxCell>
                <mxCell id="32" value="" style="group" parent="1" vertex="1" connectable="0">
                    <mxGeometry x="389" y="335.5" width="409" height="144" as="geometry"/>
                </mxCell>
                <mxCell id="33" value="" style="group" parent="32" vertex="1" connectable="0">
                    <mxGeometry x="162" y="9" width="249" height="134" as="geometry"/>
                </mxCell>
                <mxCell id="5" value="&lt;font style=&quot;font-size: 8px;&quot;&gt;Private subnet&lt;/font&gt;" style="points=[[0,0],[0.25,0],[0.5,0],[0.75,0],[1,0],[1,0.25],[1,0.5],[1,0.75],[1,1],[0.75,1],[0.5,1],[0.25,1],[0,1],[0,0.75],[0,0.5],[0,0.25]];outlineConnect=0;gradientColor=none;html=1;whiteSpace=wrap;fontSize=12;fontStyle=0;container=1;pointerEvents=0;collapsible=0;recursiveResize=0;shape=mxgraph.aws4.group;grIcon=mxgraph.aws4.group_security_group;grStroke=0;strokeColor=#147EBA;fillColor=#E6F2F8;verticalAlign=top;align=left;spacingLeft=30;fontColor=#147EBA;dashed=0;" parent="33" vertex="1">
                    <mxGeometry x="-1.0826086956521739" y="10" width="228.43043478260867" height="124" as="geometry"/>
                </mxCell>
                <mxCell id="221" value="Public subnet" style="points=[[0,0],[0.25,0],[0.5,0],[0.75,0],[1,0],[1,0.25],[1,0.5],[1,0.75],[1,1],[0.75,1],[0.5,1],[0.25,1],[0,1],[0,0.75],[0,0.5],[0,0.25]];outlineConnect=0;gradientColor=none;html=1;whiteSpace=wrap;fontSize=12;fontStyle=0;container=1;pointerEvents=0;collapsible=0;recursiveResize=0;shape=mxgraph.aws4.group;grIcon=mxgraph.aws4.group_security_group;grStroke=0;strokeColor=#248814;fillColor=#E9F3E6;verticalAlign=top;align=left;spacingLeft=30;fontColor=#248814;dashed=0;" parent="5" vertex="1">
                    <mxGeometry width="227.3478260869565" height="124" as="geometry"/>
                </mxCell>
                <mxCell id="29" value="" style="group" parent="221" vertex="1" connectable="0">
                    <mxGeometry x="35.13065217391303" y="25.5" width="161.57934782608694" height="91.25" as="geometry"/>
                </mxCell>
                <mxCell id="222" value="" style="group" parent="29" vertex="1" connectable="0">
                    <mxGeometry y="4" width="161.57934782608694" height="87.25" as="geometry"/>
                </mxCell>
                <mxCell id="214" value="" style="shape=image;verticalLabelPosition=bottom;labelBackgroundColor=default;verticalAlign=top;aspect=fixed;imageAspect=0;image=data:image/svg+xml,PHN2ZyB4bWxucz0iaHR0cDovL3d3dy53My5vcmcvMjAwMC9zdmciIHByZXNlcnZlQXNwZWN0UmF0aW89InhNaWRZTWlkIiB2aWV3Qm94PSIwIDAgMjU1Ljk5OTk4NDc0MTIxMDk0IDI0Ny4zMTUwMDI0NDE0MDYyNSIgaGVpZ2h0PSIyNDE1LjMxMDIyNTQ1NTk5MTciIHdpZHRoPSIyNDk5Ljk5OTg1MDk4ODM4OCI+PHBhdGggZmlsbD0iIzQxOUVEQSIgZD0iTTI1Mi4zODYgMTI4LjA2NGMtMS4yMDIuMS0yLjQxLjE0Ny0zLjY5My4xNDctNy40NDYgMC0xNC42Ny0xLjc0Ni0yMS4xODctNC45NDQgMi4xNy0xMi40NDcgMy4wOTItMjQuOTg3IDIuODUtMzcuNDgxLTcuMDY1LTEwLjIyLTE1LjE0LTE5Ljg2My0yNC4yNTYtMjguNzQ3IDMuOTU1LTcuNDE1IDkuODAxLTEzLjc5NSAxNy4xLTE4LjMxOWwzLjEzMy0xLjkzNy0yLjQ0Mi0yLjc1NGMtMTIuNTgxLTE0LjE2Ny0yNy41OTYtMjUuMTItNDQuNjItMzIuNTUyTDE3NS44NzYgMGwtLjg2MiAzLjU4OGMtMi4wMyA4LjM2My02LjI3NCAxNS45MDgtMTIuMSAyMS45NjJhMTkzLjg0MiAxOTMuODQyIDAgMCAwLTM0Ljk1Ni0xNC40MDVBMTk0LjAxMiAxOTQuMDEyIDAgMCAwIDkzLjA1NiAyNS41MkM4Ny4yNTQgMTkuNDczIDgzLjAyIDExLjk0NyA4MC45OTkgMy42MDhMODAuMTMuMDJsLTMuMzgyIDEuNDdDNTkuOTM5IDguODE1IDQ0LjUxIDIwLjA2NSAzMi4xMzUgMzQuMDJsLTIuNDQ5IDIuNzYgMy4xMyAxLjkzN2M3LjI3NiA0LjUwNiAxMy4xMDYgMTAuODQ5IDE3LjA1NCAxOC4yMjMtOS4wODggOC44NS0xNy4xNTQgMTguNDYyLTI0LjIxNCAyOC42MzUtLjI3NSAxMi40ODkuNiAyNS4xMiAyLjc4IDM3Ljc0LTYuNDg0IDMuMTY3LTEzLjY2OCA0Ljg5NC0yMS4wNjUgNC44OTQtMS4yOTggMC0yLjUxMy0uMDQ3LTMuNjkzLS4xNDVMMCAxMjcuNzg1bC4zNDUgMy42NzFjMS44MDIgMTguNTc4IDcuNTcgMzYuMjQ3IDE3LjE1NCA1Mi41MjNsMS44NyAzLjE3NiAyLjgxLTIuMzg0YTQ4LjA0IDQ4LjA0IDAgMCAxIDIyLjczNy0xMC42NSAxOTQuODYgMTk0Ljg2IDAgMCAwIDE5LjQ2IDMxLjY5NmMxMS44MjggNC4xMzcgMjQuMTUxIDcuMjI1IDM2Ljg3OCA5LjA2MyAxLjIyIDguNDE3LjI0OCAxNy4xMjItMy4wNzIgMjUuMTcxbC0xLjQgMy40MTEgMy42Ljc5M2M5LjIyIDIuMDI3IDE4LjUyMyAzLjA2IDI3LjYzMSAzLjA2bDI3LjYyMy0zLjA2IDMuNjA0LS43OTMtMS40MDMtMy40MTdjLTMuMzEyLTguMDUtNC4yODQtMTYuNzY1LTMuMDYzLTI1LjE4MyAxMi42NzYtMS44NCAyNC45NTQtNC45MiAzNi43MzgtOS4wNDVhMTk1LjEwOCAxOTUuMTA4IDAgMCAwIDE5LjQ4Mi0zMS43MjYgNDguMjU0IDQ4LjI1NCAwIDAgMSAyMi44NDggMTAuNjZsMi44MDkgMi4zOCAxLjg2Mi0zLjE2OGM5LjYtMTYuMjk3IDE1LjM2OC0zMy45NjUgMTcuMTQyLTUyLjUxM2wuMzQ1LTMuNjY1LTMuNjE0LjI3OXpNMTY3LjQ5IDE3Mi45NmMtMTMuMDY4IDMuNTU0LTI2LjM0IDUuMzQ4LTM5LjUzMiA1LjM0OC0xMy4yMjggMC0yNi40ODMtMS43OTMtMzkuNTYzLTUuMzQ4YTE1My4yNTUgMTUzLjI1NSAwIDAgMS0xNi45MzItMzUuNjdjLTQuMDY2LTEyLjUxNy02LjQ0NS0yNS42My03LjEzNS0zOS4xMzQgOC40NDYtMTAuNDQzIDE4LjA1Mi0xOS41OTEgMjguNjY1LTI3LjI5M2ExNTIuNjIgMTUyLjYyIDAgMCAxIDM0Ljk2NS0xOS4wMTEgMTUzLjI0MiAxNTMuMjQyIDAgMCAxIDM0Ljg5OCAxOC45N2MxMC42NTQgNy43NDMgMjAuMzAyIDE2Ljk2MiAyOC43OSAyNy40Ny0uNzI0IDEzLjQyNy0zLjEzMiAyNi40NjUtNy4yMDQgMzguOTYxYTE1Mi43NjcgMTUyLjc2NyAwIDAgMS0xNi45NTIgMzUuNzA3em0tMjguNzQtNjIuOTk4YzAgOS4yMzIgNy40ODIgMTYuNyAxNi43MDIgMTYuNyA5LjIxNyAwIDE2LjY5LTcuNDY2IDE2LjY5LTE2LjcgMC05LjE5Ni03LjQ3My0xNi42OTItMTYuNjktMTYuNjkyLTkuMjIgMC0xNi43MDEgNy40OTYtMTYuNzAxIDE2LjY5MnptLTIxLjU3OCAwYzAgOS4yMzItNy40OCAxNi43LTE2LjcgMTYuNy05LjIyNiAwLTE2LjY4NS03LjQ2Ni0xNi42ODUtMTYuNyAwLTkuMTkzIDcuNDYtMTYuNjg5IDE2LjY4Ni0xNi42ODkgOS4yMiAwIDE2LjcgNy40OTYgMTYuNyAxNi42OXoiLz48L3N2Zz4=;" parent="222" vertex="1">
                    <mxGeometry x="131.56943478260865" y="8.650000000000034" width="25" height="24.13" as="geometry"/>
                </mxCell>
                <mxCell id="6" value="" style="group" parent="222" vertex="1" connectable="0">
                    <mxGeometry y="2.653645833333333" width="159.57836519046975" height="84.59635416666667" as="geometry"/>
                </mxCell>
                <mxCell id="212" value="" style="shape=image;verticalLabelPosition=bottom;labelBackgroundColor=default;verticalAlign=top;aspect=fixed;imageAspect=0;image=data:image/svg+xml,PHN2ZyB4bWxucz0iaHR0cDovL3d3dy53My5vcmcvMjAwMC9zdmciIHByZXNlcnZlQXNwZWN0UmF0aW89InhNaWRZTWlkIiB2aWV3Qm94PSIwIDAgMjU1Ljk5OTk4NDc0MTIxMDk0IDI0Ny4zMTUwMDI0NDE0MDYyNSIgaGVpZ2h0PSIyNDE1LjMxMDIyNTQ1NTk5MTciIHdpZHRoPSIyNDk5Ljk5OTg1MDk4ODM4OCI+PHBhdGggZmlsbD0iIzQxOUVEQSIgZD0iTTI1Mi4zODYgMTI4LjA2NGMtMS4yMDIuMS0yLjQxLjE0Ny0zLjY5My4xNDctNy40NDYgMC0xNC42Ny0xLjc0Ni0yMS4xODctNC45NDQgMi4xNy0xMi40NDcgMy4wOTItMjQuOTg3IDIuODUtMzcuNDgxLTcuMDY1LTEwLjIyLTE1LjE0LTE5Ljg2My0yNC4yNTYtMjguNzQ3IDMuOTU1LTcuNDE1IDkuODAxLTEzLjc5NSAxNy4xLTE4LjMxOWwzLjEzMy0xLjkzNy0yLjQ0Mi0yLjc1NGMtMTIuNTgxLTE0LjE2Ny0yNy41OTYtMjUuMTItNDQuNjItMzIuNTUyTDE3NS44NzYgMGwtLjg2MiAzLjU4OGMtMi4wMyA4LjM2My02LjI3NCAxNS45MDgtMTIuMSAyMS45NjJhMTkzLjg0MiAxOTMuODQyIDAgMCAwLTM0Ljk1Ni0xNC40MDVBMTk0LjAxMiAxOTQuMDEyIDAgMCAwIDkzLjA1NiAyNS41MkM4Ny4yNTQgMTkuNDczIDgzLjAyIDExLjk0NyA4MC45OTkgMy42MDhMODAuMTMuMDJsLTMuMzgyIDEuNDdDNTkuOTM5IDguODE1IDQ0LjUxIDIwLjA2NSAzMi4xMzUgMzQuMDJsLTIuNDQ5IDIuNzYgMy4xMyAxLjkzN2M3LjI3NiA0LjUwNiAxMy4xMDYgMTAuODQ5IDE3LjA1NCAxOC4yMjMtOS4wODggOC44NS0xNy4xNTQgMTguNDYyLTI0LjIxNCAyOC42MzUtLjI3NSAxMi40ODkuNiAyNS4xMiAyLjc4IDM3Ljc0LTYuNDg0IDMuMTY3LTEzLjY2OCA0Ljg5NC0yMS4wNjUgNC44OTQtMS4yOTggMC0yLjUxMy0uMDQ3LTMuNjkzLS4xNDVMMCAxMjcuNzg1bC4zNDUgMy42NzFjMS44MDIgMTguNTc4IDcuNTcgMzYuMjQ3IDE3LjE1NCA1Mi41MjNsMS44NyAzLjE3NiAyLjgxLTIuMzg0YTQ4LjA0IDQ4LjA0IDAgMCAxIDIyLjczNy0xMC42NSAxOTQuODYgMTk0Ljg2IDAgMCAwIDE5LjQ2IDMxLjY5NmMxMS44MjggNC4xMzcgMjQuMTUxIDcuMjI1IDM2Ljg3OCA5LjA2MyAxLjIyIDguNDE3LjI0OCAxNy4xMjItMy4wNzIgMjUuMTcxbC0xLjQgMy40MTEgMy42Ljc5M2M5LjIyIDIuMDI3IDE4LjUyMyAzLjA2IDI3LjYzMSAzLjA2bDI3LjYyMy0zLjA2IDMuNjA0LS43OTMtMS40MDMtMy40MTdjLTMuMzEyLTguMDUtNC4yODQtMTYuNzY1LTMuMDYzLTI1LjE4MyAxMi42NzYtMS44NCAyNC45NTQtNC45MiAzNi43MzgtOS4wNDVhMTk1LjEwOCAxOTUuMTA4IDAgMCAwIDE5LjQ4Mi0zMS43MjYgNDguMjU0IDQ4LjI1NCAwIDAgMSAyMi44NDggMTAuNjZsMi44MDkgMi4zOCAxLjg2Mi0zLjE2OGM5LjYtMTYuMjk3IDE1LjM2OC0zMy45NjUgMTcuMTQyLTUyLjUxM2wuMzQ1LTMuNjY1LTMuNjE0LjI3OXpNMTY3LjQ5IDE3Mi45NmMtMTMuMDY4IDMuNTU0LTI2LjM0IDUuMzQ4LTM5LjUzMiA1LjM0OC0xMy4yMjggMC0yNi40ODMtMS43OTMtMzkuNTYzLTUuMzQ4YTE1My4yNTUgMTUzLjI1NSAwIDAgMS0xNi45MzItMzUuNjdjLTQuMDY2LTEyLjUxNy02LjQ0NS0yNS42My03LjEzNS0zOS4xMzQgOC40NDYtMTAuNDQzIDE4LjA1Mi0xOS41OTEgMjguNjY1LTI3LjI5M2ExNTIuNjIgMTUyLjYyIDAgMCAxIDM0Ljk2NS0xOS4wMTEgMTUzLjI0MiAxNTMuMjQyIDAgMCAxIDM0Ljg5OCAxOC45N2MxMC42NTQgNy43NDMgMjAuMzAyIDE2Ljk2MiAyOC43OSAyNy40Ny0uNzI0IDEzLjQyNy0zLjEzMiAyNi40NjUtNy4yMDQgMzguOTYxYTE1Mi43NjcgMTUyLjc2NyAwIDAgMS0xNi45NTIgMzUuNzA3em0tMjguNzQtNjIuOTk4YzAgOS4yMzIgNy40ODIgMTYuNyAxNi43MDIgMTYuNyA5LjIxNyAwIDE2LjY5LTcuNDY2IDE2LjY5LTE2LjcgMC05LjE5Ni03LjQ3My0xNi42OTItMTYuNjktMTYuNjkyLTkuMjIgMC0xNi43MDEgNy40OTYtMTYuNzAxIDE2LjY5MnptLTIxLjU3OCAwYzAgOS4yMzItNy40OCAxNi43LTE2LjcgMTYuNy05LjIyNiAwLTE2LjY4NS03LjQ2Ni0xNi42ODUtMTYuNyAwLTkuMTkzIDcuNDYtMTYuNjg5IDE2LjY4Ni0xNi42ODkgOS4yMiAwIDE2LjcgNy40OTYgMTYuNyAxNi42OXoiLz48L3N2Zz4=;" parent="6" vertex="1">
                    <mxGeometry y="6.646354166666697" width="25" height="24.13" as="geometry"/>
                </mxCell>
                <mxCell id="iihOq3sOjZAMv7ztsFPM-33" value="&lt;p style=&quot;line-height: 70%;&quot;&gt;&lt;span style=&quot;font-size: 8px;&quot;&gt;etcd1&lt;/span&gt;&lt;/p&gt;" style="text;html=1;strokeColor=none;fillColor=none;align=center;verticalAlign=middle;whiteSpace=wrap;rounded=0;fontColor=#000000;" parent="6" vertex="1">
                    <mxGeometry x="-4.498440234217258" y="-3.083333333333333" width="30.014739534257632" height="6.653645833333333" as="geometry"/>
                </mxCell>
                <mxCell id="20" value="&lt;p style=&quot;line-height: 70%;&quot;&gt;&lt;span style=&quot;font-size: 8px;&quot;&gt;etcd2&lt;/span&gt;&lt;/p&gt;" style="text;html=1;strokeColor=none;fillColor=none;align=left;verticalAlign=middle;whiteSpace=wrap;rounded=0;fontColor=#000000;" parent="222" vertex="1">
                    <mxGeometry x="131.5646082918293" width="30.014739534257636" height="6.653645833333333" as="geometry"/>
                </mxCell>
                <mxCell id="23" value="&lt;p style=&quot;line-height: 70%;&quot;&gt;&lt;span style=&quot;font-size: 8px;&quot;&gt;etcd3&lt;/span&gt;&lt;/p&gt;" style="text;html=1;strokeColor=none;fillColor=none;align=left;verticalAlign=middle;whiteSpace=wrap;rounded=0;fontColor=#000000;" parent="222" vertex="1">
                    <mxGeometry x="66.78279546372325" y="53.6015625" width="30.014739534257636" height="6.653645833333333" as="geometry"/>
                </mxCell>
                <mxCell id="iihOq3sOjZAMv7ztsFPM-14" value="" style="edgeStyle=orthogonalEdgeStyle;html=1;endArrow=block;startArrow=block;startFill=1;endFill=1;strokeColor=#545B64;rounded=0;curved=1;exitX=1;exitY=0.5;exitDx=0;exitDy=0;fontColor=#000000;endSize=3;startSize=3;entryX=0;entryY=0.5;entryDx=0;entryDy=0;" parent="222" source="212" target="214" edge="1">
                    <mxGeometry width="100" relative="1" as="geometry">
                        <mxPoint x="25.278913043478287" y="20.978645833333246" as="sourcePoint"/>
                        <mxPoint x="132.0782608695652" y="20.5" as="targetPoint"/>
                    </mxGeometry>
                </mxCell>
                <mxCell id="217" value="" style="shape=image;verticalLabelPosition=bottom;labelBackgroundColor=default;verticalAlign=top;aspect=fixed;imageAspect=0;image=data:image/svg+xml,PHN2ZyB4bWxucz0iaHR0cDovL3d3dy53My5vcmcvMjAwMC9zdmciIHByZXNlcnZlQXNwZWN0UmF0aW89InhNaWRZTWlkIiB2aWV3Qm94PSIwIDAgMjU1Ljk5OTk4NDc0MTIxMDk0IDI0Ny4zMTUwMDI0NDE0MDYyNSIgaGVpZ2h0PSIyNDE1LjMxMDIyNTQ1NTk5MTciIHdpZHRoPSIyNDk5Ljk5OTg1MDk4ODM4OCI+PHBhdGggZmlsbD0iIzQxOUVEQSIgZD0iTTI1Mi4zODYgMTI4LjA2NGMtMS4yMDIuMS0yLjQxLjE0Ny0zLjY5My4xNDctNy40NDYgMC0xNC42Ny0xLjc0Ni0yMS4xODctNC45NDQgMi4xNy0xMi40NDcgMy4wOTItMjQuOTg3IDIuODUtMzcuNDgxLTcuMDY1LTEwLjIyLTE1LjE0LTE5Ljg2My0yNC4yNTYtMjguNzQ3IDMuOTU1LTcuNDE1IDkuODAxLTEzLjc5NSAxNy4xLTE4LjMxOWwzLjEzMy0xLjkzNy0yLjQ0Mi0yLjc1NGMtMTIuNTgxLTE0LjE2Ny0yNy41OTYtMjUuMTItNDQuNjItMzIuNTUyTDE3NS44NzYgMGwtLjg2MiAzLjU4OGMtMi4wMyA4LjM2My02LjI3NCAxNS45MDgtMTIuMSAyMS45NjJhMTkzLjg0MiAxOTMuODQyIDAgMCAwLTM0Ljk1Ni0xNC40MDVBMTk0LjAxMiAxOTQuMDEyIDAgMCAwIDkzLjA1NiAyNS41MkM4Ny4yNTQgMTkuNDczIDgzLjAyIDExLjk0NyA4MC45OTkgMy42MDhMODAuMTMuMDJsLTMuMzgyIDEuNDdDNTkuOTM5IDguODE1IDQ0LjUxIDIwLjA2NSAzMi4xMzUgMzQuMDJsLTIuNDQ5IDIuNzYgMy4xMyAxLjkzN2M3LjI3NiA0LjUwNiAxMy4xMDYgMTAuODQ5IDE3LjA1NCAxOC4yMjMtOS4wODggOC44NS0xNy4xNTQgMTguNDYyLTI0LjIxNCAyOC42MzUtLjI3NSAxMi40ODkuNiAyNS4xMiAyLjc4IDM3Ljc0LTYuNDg0IDMuMTY3LTEzLjY2OCA0Ljg5NC0yMS4wNjUgNC44OTQtMS4yOTggMC0yLjUxMy0uMDQ3LTMuNjkzLS4xNDVMMCAxMjcuNzg1bC4zNDUgMy42NzFjMS44MDIgMTguNTc4IDcuNTcgMzYuMjQ3IDE3LjE1NCA1Mi41MjNsMS44NyAzLjE3NiAyLjgxLTIuMzg0YTQ4LjA0IDQ4LjA0IDAgMCAxIDIyLjczNy0xMC42NSAxOTQuODYgMTk0Ljg2IDAgMCAwIDE5LjQ2IDMxLjY5NmMxMS44MjggNC4xMzcgMjQuMTUxIDcuMjI1IDM2Ljg3OCA5LjA2MyAxLjIyIDguNDE3LjI0OCAxNy4xMjItMy4wNzIgMjUuMTcxbC0xLjQgMy40MTEgMy42Ljc5M2M5LjIyIDIuMDI3IDE4LjUyMyAzLjA2IDI3LjYzMSAzLjA2bDI3LjYyMy0zLjA2IDMuNjA0LS43OTMtMS40MDMtMy40MTdjLTMuMzEyLTguMDUtNC4yODQtMTYuNzY1LTMuMDYzLTI1LjE4MyAxMi42NzYtMS44NCAyNC45NTQtNC45MiAzNi43MzgtOS4wNDVhMTk1LjEwOCAxOTUuMTA4IDAgMCAwIDE5LjQ4Mi0zMS43MjYgNDguMjU0IDQ4LjI1NCAwIDAgMSAyMi44NDggMTAuNjZsMi44MDkgMi4zOCAxLjg2Mi0zLjE2OGM5LjYtMTYuMjk3IDE1LjM2OC0zMy45NjUgMTcuMTQyLTUyLjUxM2wuMzQ1LTMuNjY1LTMuNjE0LjI3OXpNMTY3LjQ5IDE3Mi45NmMtMTMuMDY4IDMuNTU0LTI2LjM0IDUuMzQ4LTM5LjUzMiA1LjM0OC0xMy4yMjggMC0yNi40ODMtMS43OTMtMzkuNTYzLTUuMzQ4YTE1My4yNTUgMTUzLjI1NSAwIDAgMS0xNi45MzItMzUuNjdjLTQuMDY2LTEyLjUxNy02LjQ0NS0yNS42My03LjEzNS0zOS4xMzQgOC40NDYtMTAuNDQzIDE4LjA1Mi0xOS41OTEgMjguNjY1LTI3LjI5M2ExNTIuNjIgMTUyLjYyIDAgMCAxIDM0Ljk2NS0xOS4wMTEgMTUzLjI0MiAxNTMuMjQyIDAgMCAxIDM0Ljg5OCAxOC45N2MxMC42NTQgNy43NDMgMjAuMzAyIDE2Ljk2MiAyOC43OSAyNy40Ny0uNzI0IDEzLjQyNy0zLjEzMiAyNi40NjUtNy4yMDQgMzguOTYxYTE1Mi43NjcgMTUyLjc2NyAwIDAgMS0xNi45NTIgMzUuNzA3em0tMjguNzQtNjIuOTk4YzAgOS4yMzIgNy40ODIgMTYuNyAxNi43MDIgMTYuNyA5LjIxNyAwIDE2LjY5LTcuNDY2IDE2LjY5LTE2LjcgMC05LjE5Ni03LjQ3My0xNi42OTItMTYuNjktMTYuNjkyLTkuMjIgMC0xNi43MDEgNy40OTYtMTYuNzAxIDE2LjY5MnptLTIxLjU3OCAwYzAgOS4yMzItNy40OCAxNi43LTE2LjcgMTYuNy05LjIyNiAwLTE2LjY4NS03LjQ2Ni0xNi42ODUtMTYuNyAwLTkuMTkzIDcuNDYtMTYuNjg5IDE2LjY4Ni0xNi42ODkgOS4yMiAwIDE2LjcgNy40OTYgMTYuNyAxNi42OXoiLz48L3N2Zz4=;" parent="221" vertex="1">
                    <mxGeometry x="102.25239130434788" y="92.12" width="25" height="24.13" as="geometry"/>
                </mxCell>
                <mxCell id="iihOq3sOjZAMv7ztsFPM-13" value="" style="edgeStyle=orthogonalEdgeStyle;html=1;endArrow=block;startArrow=block;startFill=1;endFill=1;strokeColor=#545B64;rounded=0;exitX=0.5;exitY=1;exitDx=0;exitDy=0;entryX=0;entryY=0.5;entryDx=0;entryDy=0;curved=1;fontColor=#000000;endSize=3;startSize=3;" parent="221" source="212" target="217" edge="1">
                    <mxGeometry width="100" relative="1" as="geometry">
                        <mxPoint x="47.77010869565217" y="62.15364583333326" as="sourcePoint"/>
                        <mxPoint x="103.41078260869563" y="103.82864583333321" as="targetPoint"/>
                    </mxGeometry>
                </mxCell>
                <mxCell id="iihOq3sOjZAMv7ztsFPM-15" value="" style="edgeStyle=orthogonalEdgeStyle;html=1;endArrow=block;startArrow=block;startFill=1;endFill=1;strokeColor=#545B64;rounded=0;exitX=1;exitY=0.5;exitDx=0;exitDy=0;entryX=0.5;entryY=1;entryDx=0;entryDy=0;curved=1;fontColor=#000000;endSize=3;startSize=3;" parent="221" source="217" target="214" edge="1">
                    <mxGeometry width="100" relative="1" as="geometry">
                        <mxPoint x="128.68969565217404" y="103.82864583333321" as="sourcePoint"/>
                        <mxPoint x="180.9522617445146" y="59.71875" as="targetPoint"/>
                    </mxGeometry>
                </mxCell>
                <mxCell id="65" value="" style="group" parent="1" vertex="1" connectable="0">
                    <mxGeometry x="265" y="286" width="70" height="40" as="geometry"/>
                </mxCell>
                <mxCell id="63" value="" style="sketch=0;outlineConnect=0;fontColor=#232F3E;gradientColor=none;fillColor=#4D27AA;strokeColor=none;dashed=0;verticalLabelPosition=bottom;verticalAlign=top;align=center;html=1;fontSize=12;fontStyle=0;aspect=fixed;pointerEvents=1;shape=mxgraph.aws4.internet_gateway;" parent="65" vertex="1">
                    <mxGeometry x="15" width="40" height="40" as="geometry"/>
                </mxCell>
                <mxCell id="64" value="&lt;font style=&quot;font-size: 8px;&quot;&gt;Internet Gateway&lt;/font&gt;" style="text;html=1;strokeColor=none;fillColor=none;align=center;verticalAlign=top;whiteSpace=wrap;rounded=0;fontColor=#000000;" parent="65" vertex="1">
                    <mxGeometry y="31.25" width="70" height="8.75" as="geometry"/>
                </mxCell>
                <mxCell id="66" value="" style="edgeStyle=orthogonalEdgeStyle;html=1;endArrow=block;elbow=vertical;startArrow=none;endFill=1;strokeColor=#545B64;rounded=0;" parent="1" target="230" edge="1">
                    <mxGeometry width="100" relative="1" as="geometry">
                        <mxPoint x="330" y="310" as="sourcePoint"/>
                        <mxPoint x="406" y="240.95036284470245" as="targetPoint"/>
                        <Array as="points">
                            <mxPoint x="370" y="310"/>
                            <mxPoint x="370" y="241"/>
                        </Array>
                    </mxGeometry>
                </mxCell>
                <mxCell id="48" value="" style="group" parent="1" vertex="1" connectable="0">
                    <mxGeometry x="528" y="174" width="250" height="135" as="geometry"/>
                </mxCell>
                <mxCell id="49" value="" style="group" parent="48" vertex="1" connectable="0">
                    <mxGeometry x="20" width="230" height="135" as="geometry"/>
                </mxCell>
                <mxCell id="50" value="&lt;font style=&quot;font-size: 8px;&quot;&gt;Private subnet&lt;/font&gt;" style="points=[[0,0],[0.25,0],[0.5,0],[0.75,0],[1,0],[1,0.25],[1,0.5],[1,0.75],[1,1],[0.75,1],[0.5,1],[0.25,1],[0,1],[0,0.75],[0,0.5],[0,0.25]];outlineConnect=0;gradientColor=none;html=1;whiteSpace=wrap;fontSize=12;fontStyle=0;container=1;pointerEvents=0;collapsible=0;recursiveResize=0;shape=mxgraph.aws4.group;grIcon=mxgraph.aws4.group_security_group;grStroke=0;strokeColor=#147EBA;fillColor=#E6F2F8;verticalAlign=top;align=left;spacingLeft=30;fontColor=#147EBA;dashed=0;" parent="49" vertex="1">
                    <mxGeometry width="230" height="135" as="geometry"/>
                </mxCell>
                <mxCell id="219" value="Public subnet" style="points=[[0,0],[0.25,0],[0.5,0],[0.75,0],[1,0],[1,0.25],[1,0.5],[1,0.75],[1,1],[0.75,1],[0.5,1],[0.25,1],[0,1],[0,0.75],[0,0.5],[0,0.25]];outlineConnect=0;gradientColor=none;html=1;whiteSpace=wrap;fontSize=12;fontStyle=0;container=1;pointerEvents=0;collapsible=0;recursiveResize=0;shape=mxgraph.aws4.group;grIcon=mxgraph.aws4.group_security_group;grStroke=0;strokeColor=#248814;fillColor=#E9F3E6;verticalAlign=top;align=left;spacingLeft=30;fontColor=#248814;dashed=0;" parent="50" vertex="1">
                    <mxGeometry x="0.11000000000001364" width="230" height="134" as="geometry"/>
                </mxCell>
                <mxCell id="51" value="" style="group" parent="49" vertex="1" connectable="0">
                    <mxGeometry x="40" y="33" width="170" height="91.25" as="geometry"/>
                </mxCell>
                <mxCell id="220" value="" style="group" parent="51" vertex="1" connectable="0">
                    <mxGeometry x="8" y="-3" width="162" height="87.25" as="geometry"/>
                </mxCell>
                <mxCell id="52" value="" style="group" parent="220" vertex="1" connectable="0">
                    <mxGeometry y="2.653645833333333" width="147.40170278637768" height="84.59635416666667" as="geometry"/>
                </mxCell>
                <mxCell id="56" value="&lt;p style=&quot;line-height: 70%;&quot;&gt;&lt;span style=&quot;font-size: 8px;&quot;&gt;patroni primary&lt;/span&gt;&lt;/p&gt;" style="text;html=1;strokeColor=none;fillColor=none;align=center;verticalAlign=middle;whiteSpace=wrap;rounded=0;fontColor=#000000;" parent="52" vertex="1">
                    <mxGeometry x="-13.16" y="-3.08" width="63.16" height="6.65" as="geometry"/>
                </mxCell>
                <mxCell id="71" value="" style="edgeStyle=none;html=1;startSize=3;endSize=3;" parent="52" source="70" edge="1">
                    <mxGeometry relative="1" as="geometry">
                        <mxPoint x="76.70589396284834" y="60.00000000000003" as="targetPoint"/>
                    </mxGeometry>
                </mxCell>
                <mxCell id="70" value="&lt;p style=&quot;line-height: 70%;&quot;&gt;&lt;span style=&quot;font-size: 8px;&quot;&gt;patroni replica&lt;/span&gt;&lt;/p&gt;" style="text;html=1;strokeColor=none;fillColor=none;align=center;verticalAlign=middle;whiteSpace=wrap;rounded=0;fontColor=#000000;" parent="52" vertex="1">
                    <mxGeometry x="48" y="48.97" width="60" height="6.65" as="geometry"/>
                </mxCell>
                <mxCell id="205" value="" style="shape=image;verticalLabelPosition=bottom;labelBackgroundColor=default;verticalAlign=top;aspect=fixed;imageAspect=0;image=data:image/svg+xml,PHN2ZyB4bWxucz0iaHR0cDovL3d3dy53My5vcmcvMjAwMC9zdmciIHhtbDpzcGFjZT0icHJlc2VydmUiIHZpZXdCb3g9IjAgMCA0MzIuMDcxIDQ0NS4zODMiIGhlaWdodD0iNDQ1LjM4M3B0IiB3aWR0aD0iNDMyLjA3MXB0Ij4KPGcgc3R5bGU9ImZpbGwtcnVsZTpub256ZXJvO2NsaXAtcnVsZTpub256ZXJvO3N0cm9rZTojMDAwMDAwO3N0cm9rZS1taXRlcmxpbWl0OjQ7IiBpZD0ib3JnaW5hbCI+Cgk8L2c+CjxnIHN0eWxlPSJmaWxsLXJ1bGU6bm9uemVybztjbGlwLXJ1bGU6bm9uemVybztmaWxsOm5vbmU7c3Ryb2tlOiNGRkZGRkY7c3Ryb2tlLXdpZHRoOjEyLjQ2NTE7c3Ryb2tlLWxpbmVjYXA6cm91bmQ7c3Ryb2tlLWxpbmVqb2luOnJvdW5kO3N0cm9rZS1taXRlcmxpbWl0OjQ7IiBpZD0iTGF5ZXJfeDAwMjBfMyI+CjxwYXRoIGQ9Ik0zMjMuMjA1LDMyNC4yMjdjMi44MzMtMjMuNjAxLDEuOTg0LTI3LjA2MiwxOS41NjMtMjMuMjM5bDQuNDYzLDAuMzkyYzEzLjUxNywwLjYxNSwzMS4xOTktMi4xNzQsNDEuNTg3LTdjMjIuMzYyLTEwLjM3NiwzNS42MjItMjcuNywxMy41NzItMjMuMTQ4Yy01MC4yOTcsMTAuMzc2LTUzLjc1NS02LjY1NS01My43NTUtNi42NTVjNTMuMTExLTc4LjgwMyw3NS4zMTMtMTc4LjgzNiw1Ni4xNDktMjAzLjMyMiAgICBDMzUyLjUxNC01LjUzNCwyNjIuMDM2LDI2LjA0OSwyNjAuNTIyLDI2Ljg2OWwtMC40ODIsMC4wODljLTkuOTM4LTIuMDYyLTIxLjA2LTMuMjk0LTMzLjU1NC0zLjQ5NmMtMjIuNzYxLTAuMzc0LTQwLjAzMiw1Ljk2Ny01My4xMzMsMTUuOTA0YzAsMC0xNjEuNDA4LTY2LjQ5OC0xNTMuODk5LDgzLjYyOGMxLjU5NywzMS45MzYsNDUuNzc3LDI0MS42NTUsOTguNDcsMTc4LjMxICAgIGMxOS4yNTktMjMuMTYzLDM3Ljg3MS00Mi43NDgsMzcuODcxLTQyLjc0OGM5LjI0Miw2LjE0LDIwLjMwNyw5LjI3MiwzMS45MTIsOC4xNDdsMC44OTctMC43NjVjLTAuMjgxLDIuODc2LTAuMTU3LDUuNjg5LDAuMzU5LDkuMDE5Yy0xMy41NzIsMTUuMTY3LTkuNTg0LDE3LjgzLTM2LjcyMywyMy40MTZjLTI3LjQ1Nyw1LjY1OS0xMS4zMjYsMTUuNzM0LTAuNzk3LDE4LjM2N2MxMi43NjgsMy4xOTMsNDIuMzA1LDcuNzE2LDYyLjI2OC0yMC4yMjQgICAgbC0wLjc5NSwzLjE4OGM1LjMyNSw0LjI2LDQuOTY1LDMwLjYxOSw1LjcyLDQ5LjQ1MmMwLjc1NiwxOC44MzQsMi4wMTcsMzYuNDA5LDUuODU2LDQ2Ljc3MWMzLjgzOSwxMC4zNiw4LjM2OSwzNy4wNSw0NC4wMzYsMjkuNDA2YzI5LjgwOS02LjM4OCw1Mi42LTE1LjU4Miw1NC42NzctMTAxLjEwNyIgc3R5bGU9ImZpbGw6IzAwMDAwMDtzdHJva2U6IzAwMDAwMDtzdHJva2Utd2lkdGg6MzcuMzk1MztzdHJva2UtbGluZWNhcDpidXR0O3N0cm9rZS1saW5lam9pbjptaXRlcjsiLz4KPHBhdGggZD0iTTQwMi4zOTUsMjcxLjIzYy01MC4zMDIsMTAuMzc2LTUzLjc2LTYuNjU1LTUzLjc2LTYuNjU1YzUzLjExMS03OC44MDgsNzUuMzEzLTE3OC44NDMsNTYuMTUzLTIwMy4zMjZjLTUyLjI3LTY2Ljc4NS0xNDIuNzUyLTM1LjItMTQ0LjI2Mi0zNC4zOGwtMC40ODYsMC4wODdjLTkuOTM4LTIuMDYzLTIxLjA2LTMuMjkyLTMzLjU2LTMuNDk2Yy0yMi43NjEtMC4zNzMtNDAuMDI2LDUuOTY3LTUzLjEyNywxNS45MDIgICAgYzAsMC0xNjEuNDExLTY2LjQ5NS0xNTMuOTA0LDgzLjYzYzEuNTk3LDMxLjkzOCw0NS43NzYsMjQxLjY1Nyw5OC40NzEsMTc4LjMxMmMxOS4yNi0yMy4xNjMsMzcuODY5LTQyLjc0OCwzNy44NjktNDIuNzQ4YzkuMjQzLDYuMTQsMjAuMzA4LDkuMjcyLDMxLjkwOCw4LjE0N2wwLjkwMS0wLjc2NWMtMC4yOCwyLjg3Ni0wLjE1Miw1LjY4OSwwLjM2MSw5LjAxOWMtMTMuNTc1LDE1LjE2Ny05LjU4NiwxNy44My0zNi43MjMsMjMuNDE2ICAgIGMtMjcuNDU5LDUuNjU5LTExLjMyOCwxNS43MzQtMC43OTYsMTguMzY3YzEyLjc2OCwzLjE5Myw0Mi4zMDcsNy43MTYsNjIuMjY2LTIwLjIyNGwtMC43OTYsMy4xODhjNS4zMTksNC4yNiw5LjA1NCwyNy43MTEsOC40MjgsNDguOTY5Yy0wLjYyNiwyMS4yNTktMS4wNDQsMzUuODU0LDMuMTQ3LDQ3LjI1NGM0LjE5MSwxMS40LDguMzY4LDM3LjA1LDQ0LjA0MiwyOS40MDZjMjkuODA5LTYuMzg4LDQ1LjI1Ni0yMi45NDIsNDcuNDA1LTUwLjU1NSAgICBjMS41MjUtMTkuNjMxLDQuOTc2LTE2LjcyOSw1LjE5NC0zNC4yOGwyLjc2OC04LjMwOWMzLjE5Mi0yNi42MTEsMC41MDctMzUuMTk2LDE4Ljg3Mi0zMS4yMDNsNC40NjMsMC4zOTJjMTMuNTE3LDAuNjE1LDMxLjIwOC0yLjE3NCw0MS41OTEtN2MyMi4zNTgtMTAuMzc2LDM1LjYxOC0yNy43LDEzLjU3My0yMy4xNDh6IiBzdHlsZT0iZmlsbDojMzM2NzkxO3N0cm9rZTpub25lOyIvPgo8cGF0aCBkPSJNMjE1Ljg2NiwyODYuNDg0Yy0xLjM4NSw0OS41MTYsMC4zNDgsOTkuMzc3LDUuMTkzLDExMS40OTVjNC44NDgsMTIuMTE4LDE1LjIyMywzNS42ODgsNTAuOSwyOC4wNDVjMjkuODA2LTYuMzksNDAuNjUxLTE4Ljc1Niw0NS4zNTctNDYuMDUxYzMuNDY2LTIwLjA4MiwxMC4xNDgtNzUuODU0LDExLjAwNS04Ny4yODEiLz4KPHBhdGggZD0iTTE3My4xMDQsMzguMjU2YzAsMC0xNjEuNTIxLTY2LjAxNi0xNTQuMDEyLDg0LjEwOWMxLjU5NywzMS45MzgsNDUuNzc5LDI0MS42NjQsOTguNDczLDE3OC4zMTZjMTkuMjU2LTIzLjE2NiwzNi42NzEtNDEuMzM1LDM2LjY3MS00MS4zMzUiLz4KPHBhdGggZD0iTTI2MC4zNDksMjYuMjA3Yy01LjU5MSwxLjc1Myw4OS44NDgtMzQuODg5LDE0NC4wODcsMzQuNDE3YzE5LjE1OSwyNC40ODQtMy4wNDMsMTI0LjUxOS01Ni4xNTMsMjAzLjMyOSIvPgo8cGF0aCBkPSJNMzQ4LjI4MiwyNjMuOTUzYzAsMCwzLjQ2MSwxNy4wMzYsNTMuNzY0LDYuNjUzYzIyLjA0LTQuNTUyLDguNzc2LDEyLjc3NC0xMy41NzcsMjMuMTU1Yy0xOC4zNDUsOC41MTQtNTkuNDc0LDEwLjY5Ni02MC4xNDYtMS4wNjljLTEuNzI5LTMwLjM1NSwyMS42NDctMjEuMTMzLDE5Ljk2LTI4LjczOWMtMS41MjUtNi44NS0xMS45NzktMTMuNTczLTE4Ljg5NC0zMC4zMzggICAgYy02LjAzNy0xNC42MzMtODIuNzk2LTEyNi44NDksMjEuMjg3LTExMC4xODNjMy44MTMtMC43ODktMjcuMTQ2LTk5LjAwMi0xMjQuNTUzLTEwMC41OTljLTk3LjM4NS0xLjU5Ny05NC4xOSwxMTkuNzYyLTk0LjE5LDExOS43NjIiIHN0eWxlPSJzdHJva2UtbGluZWpvaW46YmV2ZWw7Ii8+CjxwYXRoIGQ9Ik0xODguNjA0LDI3NC4zMzRjLTEzLjU3NywxNS4xNjYtOS41ODQsMTcuODI5LTM2LjcyMywyMy40MTdjLTI3LjQ1OSw1LjY2LTExLjMyNiwxNS43MzMtMC43OTcsMTguMzY1YzEyLjc2OCwzLjE5NSw0Mi4zMDcsNy43MTgsNjIuMjY2LTIwLjIyOWM2LjA3OC04LjUwOS0wLjAzNi0yMi4wODYtOC4zODUtMjUuNTQ3Yy00LjAzNC0xLjY3MS05LjQyOC0zLjc2NS0xNi4zNjEsMy45OTR6Ii8+CjxwYXRoIGQ9Ik0xODcuNzE1LDI3NC4wNjljLTEuMzY4LTguOTE3LDIuOTMtMTkuNTI4LDcuNTM2LTMxLjk0MmM2LjkyMi0xOC42MjYsMjIuODkzLTM3LjI1NSwxMC4xMTctOTYuMzM5Yy05LjUyMy00NC4wMjktNzMuMzk2LTkuMTYzLTczLjQzNi0zLjE5M2MtMC4wMzksNS45NjgsMi44ODksMzAuMjYtMS4wNjcsNTguNTQ4Yy01LjE2MiwzNi45MTMsMjMuNDg4LDY4LjEzMiw1Ni40NzksNjQuOTM4Ii8+CjxwYXRoIGQ9Ik0xNzIuNTE3LDE0MS43Yy0wLjI4OCwyLjAzOSwzLjczMyw3LjQ4LDguOTc2LDguMjA3YzUuMjM0LDAuNzMsOS43MTQtMy41MjIsOS45OTgtNS41NTljMC4yODQtMi4wMzktMy43MzItNC4yODUtOC45NzctNS4wMTVjLTUuMjM3LTAuNzMxLTkuNzE5LDAuMzMzLTkuOTk2LDIuMzY3eiIgc3R5bGU9ImZpbGw6I0ZGRkZGRjtzdHJva2Utd2lkdGg6NC4xNTU7c3Ryb2tlLWxpbmVjYXA6YnV0dDtzdHJva2UtbGluZWpvaW46bWl0ZXI7Ii8+CjxwYXRoIGQ9Ik0zMzEuOTQxLDEzNy41NDNjMC4yODQsMi4wMzktMy43MzIsNy40OC04Ljk3Niw4LjIwN2MtNS4yMzgsMC43My05LjcxOC0zLjUyMi0xMC4wMDUtNS41NTljLTAuMjc3LTIuMDM5LDMuNzQtNC4yODUsOC45NzktNS4wMTVjNS4yMzktMC43Myw5LjcxOCwwLjMzMywxMC4wMDIsMi4zNjh6IiBzdHlsZT0iZmlsbDojRkZGRkZGO3N0cm9rZS13aWR0aDoyLjA3NzU7c3Ryb2tlLWxpbmVjYXA6YnV0dDtzdHJva2UtbGluZWpvaW46bWl0ZXI7Ii8+CjxwYXRoIGQ9Ik0zNTAuNjc2LDEyMy40MzJjMC44NjMsMTUuOTk0LTMuNDQ1LDI2Ljg4OC0zLjk4OCw0My45MTRjLTAuODA0LDI0Ljc0OCwxMS43OTksNTMuMDc0LTcuMTkxLDgxLjQzNSIvPgo8cGF0aCBkPSJNMCw2MC4yMzIiIHN0eWxlPSJzdHJva2Utd2lkdGg6MzsiLz4KPC9nPgo8L3N2Zz4=;" parent="52" vertex="1">
                    <mxGeometry y="6.646354166666651" width="25" height="25.75" as="geometry"/>
                </mxCell>
                <mxCell id="69" value="&lt;p style=&quot;line-height: 70%;&quot;&gt;&lt;span style=&quot;font-size: 8px;&quot;&gt;patroni replica&lt;/span&gt;&lt;/p&gt;" style="text;html=1;strokeColor=none;fillColor=none;align=center;verticalAlign=middle;whiteSpace=wrap;rounded=0;fontColor=#000000;" parent="220" vertex="1">
                    <mxGeometry x="102" width="60" height="6.65" as="geometry"/>
                </mxCell>
                <mxCell id="206" value="" style="shape=image;verticalLabelPosition=bottom;labelBackgroundColor=default;verticalAlign=top;aspect=fixed;imageAspect=0;image=data:image/svg+xml,PHN2ZyB4bWxucz0iaHR0cDovL3d3dy53My5vcmcvMjAwMC9zdmciIHhtbDpzcGFjZT0icHJlc2VydmUiIHZpZXdCb3g9IjAgMCA0MzIuMDcxIDQ0NS4zODMiIGhlaWdodD0iNDQ1LjM4M3B0IiB3aWR0aD0iNDMyLjA3MXB0Ij4KPGcgc3R5bGU9ImZpbGwtcnVsZTpub256ZXJvO2NsaXAtcnVsZTpub256ZXJvO3N0cm9rZTojMDAwMDAwO3N0cm9rZS1taXRlcmxpbWl0OjQ7IiBpZD0ib3JnaW5hbCI+Cgk8L2c+CjxnIHN0eWxlPSJmaWxsLXJ1bGU6bm9uemVybztjbGlwLXJ1bGU6bm9uemVybztmaWxsOm5vbmU7c3Ryb2tlOiNGRkZGRkY7c3Ryb2tlLXdpZHRoOjEyLjQ2NTE7c3Ryb2tlLWxpbmVjYXA6cm91bmQ7c3Ryb2tlLWxpbmVqb2luOnJvdW5kO3N0cm9rZS1taXRlcmxpbWl0OjQ7IiBpZD0iTGF5ZXJfeDAwMjBfMyI+CjxwYXRoIGQ9Ik0zMjMuMjA1LDMyNC4yMjdjMi44MzMtMjMuNjAxLDEuOTg0LTI3LjA2MiwxOS41NjMtMjMuMjM5bDQuNDYzLDAuMzkyYzEzLjUxNywwLjYxNSwzMS4xOTktMi4xNzQsNDEuNTg3LTdjMjIuMzYyLTEwLjM3NiwzNS42MjItMjcuNywxMy41NzItMjMuMTQ4Yy01MC4yOTcsMTAuMzc2LTUzLjc1NS02LjY1NS01My43NTUtNi42NTVjNTMuMTExLTc4LjgwMyw3NS4zMTMtMTc4LjgzNiw1Ni4xNDktMjAzLjMyMiAgICBDMzUyLjUxNC01LjUzNCwyNjIuMDM2LDI2LjA0OSwyNjAuNTIyLDI2Ljg2OWwtMC40ODIsMC4wODljLTkuOTM4LTIuMDYyLTIxLjA2LTMuMjk0LTMzLjU1NC0zLjQ5NmMtMjIuNzYxLTAuMzc0LTQwLjAzMiw1Ljk2Ny01My4xMzMsMTUuOTA0YzAsMC0xNjEuNDA4LTY2LjQ5OC0xNTMuODk5LDgzLjYyOGMxLjU5NywzMS45MzYsNDUuNzc3LDI0MS42NTUsOTguNDcsMTc4LjMxICAgIGMxOS4yNTktMjMuMTYzLDM3Ljg3MS00Mi43NDgsMzcuODcxLTQyLjc0OGM5LjI0Miw2LjE0LDIwLjMwNyw5LjI3MiwzMS45MTIsOC4xNDdsMC44OTctMC43NjVjLTAuMjgxLDIuODc2LTAuMTU3LDUuNjg5LDAuMzU5LDkuMDE5Yy0xMy41NzIsMTUuMTY3LTkuNTg0LDE3LjgzLTM2LjcyMywyMy40MTZjLTI3LjQ1Nyw1LjY1OS0xMS4zMjYsMTUuNzM0LTAuNzk3LDE4LjM2N2MxMi43NjgsMy4xOTMsNDIuMzA1LDcuNzE2LDYyLjI2OC0yMC4yMjQgICAgbC0wLjc5NSwzLjE4OGM1LjMyNSw0LjI2LDQuOTY1LDMwLjYxOSw1LjcyLDQ5LjQ1MmMwLjc1NiwxOC44MzQsMi4wMTcsMzYuNDA5LDUuODU2LDQ2Ljc3MWMzLjgzOSwxMC4zNiw4LjM2OSwzNy4wNSw0NC4wMzYsMjkuNDA2YzI5LjgwOS02LjM4OCw1Mi42LTE1LjU4Miw1NC42NzctMTAxLjEwNyIgc3R5bGU9ImZpbGw6IzAwMDAwMDtzdHJva2U6IzAwMDAwMDtzdHJva2Utd2lkdGg6MzcuMzk1MztzdHJva2UtbGluZWNhcDpidXR0O3N0cm9rZS1saW5lam9pbjptaXRlcjsiLz4KPHBhdGggZD0iTTQwMi4zOTUsMjcxLjIzYy01MC4zMDIsMTAuMzc2LTUzLjc2LTYuNjU1LTUzLjc2LTYuNjU1YzUzLjExMS03OC44MDgsNzUuMzEzLTE3OC44NDMsNTYuMTUzLTIwMy4zMjZjLTUyLjI3LTY2Ljc4NS0xNDIuNzUyLTM1LjItMTQ0LjI2Mi0zNC4zOGwtMC40ODYsMC4wODdjLTkuOTM4LTIuMDYzLTIxLjA2LTMuMjkyLTMzLjU2LTMuNDk2Yy0yMi43NjEtMC4zNzMtNDAuMDI2LDUuOTY3LTUzLjEyNywxNS45MDIgICAgYzAsMC0xNjEuNDExLTY2LjQ5NS0xNTMuOTA0LDgzLjYzYzEuNTk3LDMxLjkzOCw0NS43NzYsMjQxLjY1Nyw5OC40NzEsMTc4LjMxMmMxOS4yNi0yMy4xNjMsMzcuODY5LTQyLjc0OCwzNy44NjktNDIuNzQ4YzkuMjQzLDYuMTQsMjAuMzA4LDkuMjcyLDMxLjkwOCw4LjE0N2wwLjkwMS0wLjc2NWMtMC4yOCwyLjg3Ni0wLjE1Miw1LjY4OSwwLjM2MSw5LjAxOWMtMTMuNTc1LDE1LjE2Ny05LjU4NiwxNy44My0zNi43MjMsMjMuNDE2ICAgIGMtMjcuNDU5LDUuNjU5LTExLjMyOCwxNS43MzQtMC43OTYsMTguMzY3YzEyLjc2OCwzLjE5Myw0Mi4zMDcsNy43MTYsNjIuMjY2LTIwLjIyNGwtMC43OTYsMy4xODhjNS4zMTksNC4yNiw5LjA1NCwyNy43MTEsOC40MjgsNDguOTY5Yy0wLjYyNiwyMS4yNTktMS4wNDQsMzUuODU0LDMuMTQ3LDQ3LjI1NGM0LjE5MSwxMS40LDguMzY4LDM3LjA1LDQ0LjA0MiwyOS40MDZjMjkuODA5LTYuMzg4LDQ1LjI1Ni0yMi45NDIsNDcuNDA1LTUwLjU1NSAgICBjMS41MjUtMTkuNjMxLDQuOTc2LTE2LjcyOSw1LjE5NC0zNC4yOGwyLjc2OC04LjMwOWMzLjE5Mi0yNi42MTEsMC41MDctMzUuMTk2LDE4Ljg3Mi0zMS4yMDNsNC40NjMsMC4zOTJjMTMuNTE3LDAuNjE1LDMxLjIwOC0yLjE3NCw0MS41OTEtN2MyMi4zNTgtMTAuMzc2LDM1LjYxOC0yNy43LDEzLjU3My0yMy4xNDh6IiBzdHlsZT0iZmlsbDojMzM2NzkxO3N0cm9rZTpub25lOyIvPgo8cGF0aCBkPSJNMjE1Ljg2NiwyODYuNDg0Yy0xLjM4NSw0OS41MTYsMC4zNDgsOTkuMzc3LDUuMTkzLDExMS40OTVjNC44NDgsMTIuMTE4LDE1LjIyMywzNS42ODgsNTAuOSwyOC4wNDVjMjkuODA2LTYuMzksNDAuNjUxLTE4Ljc1Niw0NS4zNTctNDYuMDUxYzMuNDY2LTIwLjA4MiwxMC4xNDgtNzUuODU0LDExLjAwNS04Ny4yODEiLz4KPHBhdGggZD0iTTE3My4xMDQsMzguMjU2YzAsMC0xNjEuNTIxLTY2LjAxNi0xNTQuMDEyLDg0LjEwOWMxLjU5NywzMS45MzgsNDUuNzc5LDI0MS42NjQsOTguNDczLDE3OC4zMTZjMTkuMjU2LTIzLjE2NiwzNi42NzEtNDEuMzM1LDM2LjY3MS00MS4zMzUiLz4KPHBhdGggZD0iTTI2MC4zNDksMjYuMjA3Yy01LjU5MSwxLjc1Myw4OS44NDgtMzQuODg5LDE0NC4wODcsMzQuNDE3YzE5LjE1OSwyNC40ODQtMy4wNDMsMTI0LjUxOS01Ni4xNTMsMjAzLjMyOSIvPgo8cGF0aCBkPSJNMzQ4LjI4MiwyNjMuOTUzYzAsMCwzLjQ2MSwxNy4wMzYsNTMuNzY0LDYuNjUzYzIyLjA0LTQuNTUyLDguNzc2LDEyLjc3NC0xMy41NzcsMjMuMTU1Yy0xOC4zNDUsOC41MTQtNTkuNDc0LDEwLjY5Ni02MC4xNDYtMS4wNjljLTEuNzI5LTMwLjM1NSwyMS42NDctMjEuMTMzLDE5Ljk2LTI4LjczOWMtMS41MjUtNi44NS0xMS45NzktMTMuNTczLTE4Ljg5NC0zMC4zMzggICAgYy02LjAzNy0xNC42MzMtODIuNzk2LTEyNi44NDksMjEuMjg3LTExMC4xODNjMy44MTMtMC43ODktMjcuMTQ2LTk5LjAwMi0xMjQuNTUzLTEwMC41OTljLTk3LjM4NS0xLjU5Ny05NC4xOSwxMTkuNzYyLTk0LjE5LDExOS43NjIiIHN0eWxlPSJzdHJva2UtbGluZWpvaW46YmV2ZWw7Ii8+CjxwYXRoIGQ9Ik0xODguNjA0LDI3NC4zMzRjLTEzLjU3NywxNS4xNjYtOS41ODQsMTcuODI5LTM2LjcyMywyMy40MTdjLTI3LjQ1OSw1LjY2LTExLjMyNiwxNS43MzMtMC43OTcsMTguMzY1YzEyLjc2OCwzLjE5NSw0Mi4zMDcsNy43MTgsNjIuMjY2LTIwLjIyOWM2LjA3OC04LjUwOS0wLjAzNi0yMi4wODYtOC4zODUtMjUuNTQ3Yy00LjAzNC0xLjY3MS05LjQyOC0zLjc2NS0xNi4zNjEsMy45OTR6Ii8+CjxwYXRoIGQ9Ik0xODcuNzE1LDI3NC4wNjljLTEuMzY4LTguOTE3LDIuOTMtMTkuNTI4LDcuNTM2LTMxLjk0MmM2LjkyMi0xOC42MjYsMjIuODkzLTM3LjI1NSwxMC4xMTctOTYuMzM5Yy05LjUyMy00NC4wMjktNzMuMzk2LTkuMTYzLTczLjQzNi0zLjE5M2MtMC4wMzksNS45NjgsMi44ODksMzAuMjYtMS4wNjcsNTguNTQ4Yy01LjE2MiwzNi45MTMsMjMuNDg4LDY4LjEzMiw1Ni40NzksNjQuOTM4Ii8+CjxwYXRoIGQ9Ik0xNzIuNTE3LDE0MS43Yy0wLjI4OCwyLjAzOSwzLjczMyw3LjQ4LDguOTc2LDguMjA3YzUuMjM0LDAuNzMsOS43MTQtMy41MjIsOS45OTgtNS41NTljMC4yODQtMi4wMzktMy43MzItNC4yODUtOC45NzctNS4wMTVjLTUuMjM3LTAuNzMxLTkuNzE5LDAuMzMzLTkuOTk2LDIuMzY3eiIgc3R5bGU9ImZpbGw6I0ZGRkZGRjtzdHJva2Utd2lkdGg6NC4xNTU7c3Ryb2tlLWxpbmVjYXA6YnV0dDtzdHJva2UtbGluZWpvaW46bWl0ZXI7Ii8+CjxwYXRoIGQ9Ik0zMzEuOTQxLDEzNy41NDNjMC4yODQsMi4wMzktMy43MzIsNy40OC04Ljk3Niw4LjIwN2MtNS4yMzgsMC43My05LjcxOC0zLjUyMi0xMC4wMDUtNS41NTljLTAuMjc3LTIuMDM5LDMuNzQtNC4yODUsOC45NzktNS4wMTVjNS4yMzktMC43Myw5LjcxOCwwLjMzMywxMC4wMDIsMi4zNjh6IiBzdHlsZT0iZmlsbDojRkZGRkZGO3N0cm9rZS13aWR0aDoyLjA3NzU7c3Ryb2tlLWxpbmVjYXA6YnV0dDtzdHJva2UtbGluZWpvaW46bWl0ZXI7Ii8+CjxwYXRoIGQ9Ik0zNTAuNjc2LDEyMy40MzJjMC44NjMsMTUuOTk0LTMuNDQ1LDI2Ljg4OC0zLjk4OCw0My45MTRjLTAuODA0LDI0Ljc0OCwxMS43OTksNTMuMDc0LTcuMTkxLDgxLjQzNSIvPgo8cGF0aCBkPSJNMCw2MC4yMzIiIHN0eWxlPSJzdHJva2Utd2lkdGg6MzsiLz4KPC9nPgo8L3N2Zz4=;" parent="220" vertex="1">
                    <mxGeometry x="119.5" y="8.649999999999977" width="25" height="25.75" as="geometry"/>
                </mxCell>
                <mxCell id="58" value="" style="edgeStyle=orthogonalEdgeStyle;html=1;endArrow=block;startArrow=block;startFill=1;endFill=1;strokeColor=#545B64;rounded=0;curved=1;entryX=0;entryY=0.5;entryDx=0;entryDy=0;exitX=1;exitY=0.5;exitDx=0;exitDy=0;fontColor=#000000;endSize=3;startSize=3;" parent="220" source="205" target="206" edge="1">
                    <mxGeometry width="100" relative="1" as="geometry">
                        <mxPoint x="23.350000000000023" y="20.978645833333303" as="sourcePoint"/>
                        <mxPoint x="121.99000000000001" y="20.978645833333303" as="targetPoint"/>
                    </mxGeometry>
                </mxCell>
                <mxCell id="68" value="&lt;font style=&quot;font-size: 8px;&quot;&gt;Amazon S3&lt;/font&gt;" style="sketch=0;outlineConnect=0;fontColor=#232F3E;gradientColor=none;strokeColor=#ffffff;fillColor=#232F3E;dashed=0;verticalLabelPosition=middle;verticalAlign=bottom;align=center;html=1;whiteSpace=wrap;fontSize=10;fontStyle=1;spacing=3;shape=mxgraph.aws4.productIcon;prIcon=mxgraph.aws4.s3;rounded=1;strokeWidth=0.25;" parent="1" vertex="1">
                    <mxGeometry x="493.04" y="410" width="34.96" height="64.25" as="geometry"/>
                </mxCell>
                <mxCell id="201" value="" style="edgeStyle=orthogonalEdgeStyle;html=1;endArrow=block;elbow=vertical;startArrow=none;endFill=1;strokeColor=#545B64;rounded=0;exitX=0.25;exitY=1;exitDx=0;exitDy=0;" parent="1" source="50" target="68" edge="1">
                    <mxGeometry width="100" relative="1" as="geometry">
                        <mxPoint x="476.9579100145138" y="250.95036284470257" as="sourcePoint"/>
                        <mxPoint x="558" y="251" as="targetPoint"/>
                        <Array as="points">
                            <mxPoint x="606" y="340"/>
                            <mxPoint x="511" y="340"/>
                        </Array>
                    </mxGeometry>
                </mxCell>
                <mxCell id="209" value="" style="shape=image;verticalLabelPosition=bottom;labelBackgroundColor=default;verticalAlign=top;aspect=fixed;imageAspect=0;image=data:image/svg+xml,PHN2ZyB4bWxucz0iaHR0cDovL3d3dy53My5vcmcvMjAwMC9zdmciIHhtbDpzcGFjZT0icHJlc2VydmUiIHZpZXdCb3g9IjAgMCA0MzIuMDcxIDQ0NS4zODMiIGhlaWdodD0iNDQ1LjM4M3B0IiB3aWR0aD0iNDMyLjA3MXB0Ij4KPGcgc3R5bGU9ImZpbGwtcnVsZTpub256ZXJvO2NsaXAtcnVsZTpub256ZXJvO3N0cm9rZTojMDAwMDAwO3N0cm9rZS1taXRlcmxpbWl0OjQ7IiBpZD0ib3JnaW5hbCI+Cgk8L2c+CjxnIHN0eWxlPSJmaWxsLXJ1bGU6bm9uemVybztjbGlwLXJ1bGU6bm9uemVybztmaWxsOm5vbmU7c3Ryb2tlOiNGRkZGRkY7c3Ryb2tlLXdpZHRoOjEyLjQ2NTE7c3Ryb2tlLWxpbmVjYXA6cm91bmQ7c3Ryb2tlLWxpbmVqb2luOnJvdW5kO3N0cm9rZS1taXRlcmxpbWl0OjQ7IiBpZD0iTGF5ZXJfeDAwMjBfMyI+CjxwYXRoIGQ9Ik0zMjMuMjA1LDMyNC4yMjdjMi44MzMtMjMuNjAxLDEuOTg0LTI3LjA2MiwxOS41NjMtMjMuMjM5bDQuNDYzLDAuMzkyYzEzLjUxNywwLjYxNSwzMS4xOTktMi4xNzQsNDEuNTg3LTdjMjIuMzYyLTEwLjM3NiwzNS42MjItMjcuNywxMy41NzItMjMuMTQ4Yy01MC4yOTcsMTAuMzc2LTUzLjc1NS02LjY1NS01My43NTUtNi42NTVjNTMuMTExLTc4LjgwMyw3NS4zMTMtMTc4LjgzNiw1Ni4xNDktMjAzLjMyMiAgICBDMzUyLjUxNC01LjUzNCwyNjIuMDM2LDI2LjA0OSwyNjAuNTIyLDI2Ljg2OWwtMC40ODIsMC4wODljLTkuOTM4LTIuMDYyLTIxLjA2LTMuMjk0LTMzLjU1NC0zLjQ5NmMtMjIuNzYxLTAuMzc0LTQwLjAzMiw1Ljk2Ny01My4xMzMsMTUuOTA0YzAsMC0xNjEuNDA4LTY2LjQ5OC0xNTMuODk5LDgzLjYyOGMxLjU5NywzMS45MzYsNDUuNzc3LDI0MS42NTUsOTguNDcsMTc4LjMxICAgIGMxOS4yNTktMjMuMTYzLDM3Ljg3MS00Mi43NDgsMzcuODcxLTQyLjc0OGM5LjI0Miw2LjE0LDIwLjMwNyw5LjI3MiwzMS45MTIsOC4xNDdsMC44OTctMC43NjVjLTAuMjgxLDIuODc2LTAuMTU3LDUuNjg5LDAuMzU5LDkuMDE5Yy0xMy41NzIsMTUuMTY3LTkuNTg0LDE3LjgzLTM2LjcyMywyMy40MTZjLTI3LjQ1Nyw1LjY1OS0xMS4zMjYsMTUuNzM0LTAuNzk3LDE4LjM2N2MxMi43NjgsMy4xOTMsNDIuMzA1LDcuNzE2LDYyLjI2OC0yMC4yMjQgICAgbC0wLjc5NSwzLjE4OGM1LjMyNSw0LjI2LDQuOTY1LDMwLjYxOSw1LjcyLDQ5LjQ1MmMwLjc1NiwxOC44MzQsMi4wMTcsMzYuNDA5LDUuODU2LDQ2Ljc3MWMzLjgzOSwxMC4zNiw4LjM2OSwzNy4wNSw0NC4wMzYsMjkuNDA2YzI5LjgwOS02LjM4OCw1Mi42LTE1LjU4Miw1NC42NzctMTAxLjEwNyIgc3R5bGU9ImZpbGw6IzAwMDAwMDtzdHJva2U6IzAwMDAwMDtzdHJva2Utd2lkdGg6MzcuMzk1MztzdHJva2UtbGluZWNhcDpidXR0O3N0cm9rZS1saW5lam9pbjptaXRlcjsiLz4KPHBhdGggZD0iTTQwMi4zOTUsMjcxLjIzYy01MC4zMDIsMTAuMzc2LTUzLjc2LTYuNjU1LTUzLjc2LTYuNjU1YzUzLjExMS03OC44MDgsNzUuMzEzLTE3OC44NDMsNTYuMTUzLTIwMy4zMjZjLTUyLjI3LTY2Ljc4NS0xNDIuNzUyLTM1LjItMTQ0LjI2Mi0zNC4zOGwtMC40ODYsMC4wODdjLTkuOTM4LTIuMDYzLTIxLjA2LTMuMjkyLTMzLjU2LTMuNDk2Yy0yMi43NjEtMC4zNzMtNDAuMDI2LDUuOTY3LTUzLjEyNywxNS45MDIgICAgYzAsMC0xNjEuNDExLTY2LjQ5NS0xNTMuOTA0LDgzLjYzYzEuNTk3LDMxLjkzOCw0NS43NzYsMjQxLjY1Nyw5OC40NzEsMTc4LjMxMmMxOS4yNi0yMy4xNjMsMzcuODY5LTQyLjc0OCwzNy44NjktNDIuNzQ4YzkuMjQzLDYuMTQsMjAuMzA4LDkuMjcyLDMxLjkwOCw4LjE0N2wwLjkwMS0wLjc2NWMtMC4yOCwyLjg3Ni0wLjE1Miw1LjY4OSwwLjM2MSw5LjAxOWMtMTMuNTc1LDE1LjE2Ny05LjU4NiwxNy44My0zNi43MjMsMjMuNDE2ICAgIGMtMjcuNDU5LDUuNjU5LTExLjMyOCwxNS43MzQtMC43OTYsMTguMzY3YzEyLjc2OCwzLjE5Myw0Mi4zMDcsNy43MTYsNjIuMjY2LTIwLjIyNGwtMC43OTYsMy4xODhjNS4zMTksNC4yNiw5LjA1NCwyNy43MTEsOC40MjgsNDguOTY5Yy0wLjYyNiwyMS4yNTktMS4wNDQsMzUuODU0LDMuMTQ3LDQ3LjI1NGM0LjE5MSwxMS40LDguMzY4LDM3LjA1LDQ0LjA0MiwyOS40MDZjMjkuODA5LTYuMzg4LDQ1LjI1Ni0yMi45NDIsNDcuNDA1LTUwLjU1NSAgICBjMS41MjUtMTkuNjMxLDQuOTc2LTE2LjcyOSw1LjE5NC0zNC4yOGwyLjc2OC04LjMwOWMzLjE5Mi0yNi42MTEsMC41MDctMzUuMTk2LDE4Ljg3Mi0zMS4yMDNsNC40NjMsMC4zOTJjMTMuNTE3LDAuNjE1LDMxLjIwOC0yLjE3NCw0MS41OTEtN2MyMi4zNTgtMTAuMzc2LDM1LjYxOC0yNy43LDEzLjU3My0yMy4xNDh6IiBzdHlsZT0iZmlsbDojMzM2NzkxO3N0cm9rZTpub25lOyIvPgo8cGF0aCBkPSJNMjE1Ljg2NiwyODYuNDg0Yy0xLjM4NSw0OS41MTYsMC4zNDgsOTkuMzc3LDUuMTkzLDExMS40OTVjNC44NDgsMTIuMTE4LDE1LjIyMywzNS42ODgsNTAuOSwyOC4wNDVjMjkuODA2LTYuMzksNDAuNjUxLTE4Ljc1Niw0NS4zNTctNDYuMDUxYzMuNDY2LTIwLjA4MiwxMC4xNDgtNzUuODU0LDExLjAwNS04Ny4yODEiLz4KPHBhdGggZD0iTTE3My4xMDQsMzguMjU2YzAsMC0xNjEuNTIxLTY2LjAxNi0xNTQuMDEyLDg0LjEwOWMxLjU5NywzMS45MzgsNDUuNzc5LDI0MS42NjQsOTguNDczLDE3OC4zMTZjMTkuMjU2LTIzLjE2NiwzNi42NzEtNDEuMzM1LDM2LjY3MS00MS4zMzUiLz4KPHBhdGggZD0iTTI2MC4zNDksMjYuMjA3Yy01LjU5MSwxLjc1Myw4OS44NDgtMzQuODg5LDE0NC4wODcsMzQuNDE3YzE5LjE1OSwyNC40ODQtMy4wNDMsMTI0LjUxOS01Ni4xNTMsMjAzLjMyOSIvPgo8cGF0aCBkPSJNMzQ4LjI4MiwyNjMuOTUzYzAsMCwzLjQ2MSwxNy4wMzYsNTMuNzY0LDYuNjUzYzIyLjA0LTQuNTUyLDguNzc2LDEyLjc3NC0xMy41NzcsMjMuMTU1Yy0xOC4zNDUsOC41MTQtNTkuNDc0LDEwLjY5Ni02MC4xNDYtMS4wNjljLTEuNzI5LTMwLjM1NSwyMS42NDctMjEuMTMzLDE5Ljk2LTI4LjczOWMtMS41MjUtNi44NS0xMS45NzktMTMuNTczLTE4Ljg5NC0zMC4zMzggICAgYy02LjAzNy0xNC42MzMtODIuNzk2LTEyNi44NDksMjEuMjg3LTExMC4xODNjMy44MTMtMC43ODktMjcuMTQ2LTk5LjAwMi0xMjQuNTUzLTEwMC41OTljLTk3LjM4NS0xLjU5Ny05NC4xOSwxMTkuNzYyLTk0LjE5LDExOS43NjIiIHN0eWxlPSJzdHJva2UtbGluZWpvaW46YmV2ZWw7Ii8+CjxwYXRoIGQ9Ik0xODguNjA0LDI3NC4zMzRjLTEzLjU3NywxNS4xNjYtOS41ODQsMTcuODI5LTM2LjcyMywyMy40MTdjLTI3LjQ1OSw1LjY2LTExLjMyNiwxNS43MzMtMC43OTcsMTguMzY1YzEyLjc2OCwzLjE5NSw0Mi4zMDcsNy43MTgsNjIuMjY2LTIwLjIyOWM2LjA3OC04LjUwOS0wLjAzNi0yMi4wODYtOC4zODUtMjUuNTQ3Yy00LjAzNC0xLjY3MS05LjQyOC0zLjc2NS0xNi4zNjEsMy45OTR6Ii8+CjxwYXRoIGQ9Ik0xODcuNzE1LDI3NC4wNjljLTEuMzY4LTguOTE3LDIuOTMtMTkuNTI4LDcuNTM2LTMxLjk0MmM2LjkyMi0xOC42MjYsMjIuODkzLTM3LjI1NSwxMC4xMTctOTYuMzM5Yy05LjUyMy00NC4wMjktNzMuMzk2LTkuMTYzLTczLjQzNi0zLjE5M2MtMC4wMzksNS45NjgsMi44ODksMzAuMjYtMS4wNjcsNTguNTQ4Yy01LjE2MiwzNi45MTMsMjMuNDg4LDY4LjEzMiw1Ni40NzksNjQuOTM4Ii8+CjxwYXRoIGQ9Ik0xNzIuNTE3LDE0MS43Yy0wLjI4OCwyLjAzOSwzLjczMyw3LjQ4LDguOTc2LDguMjA3YzUuMjM0LDAuNzMsOS43MTQtMy41MjIsOS45OTgtNS41NTljMC4yODQtMi4wMzktMy43MzItNC4yODUtOC45NzctNS4wMTVjLTUuMjM3LTAuNzMxLTkuNzE5LDAuMzMzLTkuOTk2LDIuMzY3eiIgc3R5bGU9ImZpbGw6I0ZGRkZGRjtzdHJva2Utd2lkdGg6NC4xNTU7c3Ryb2tlLWxpbmVjYXA6YnV0dDtzdHJva2UtbGluZWpvaW46bWl0ZXI7Ii8+CjxwYXRoIGQ9Ik0zMzEuOTQxLDEzNy41NDNjMC4yODQsMi4wMzktMy43MzIsNy40OC04Ljk3Niw4LjIwN2MtNS4yMzgsMC43My05LjcxOC0zLjUyMi0xMC4wMDUtNS41NTljLTAuMjc3LTIuMDM5LDMuNzQtNC4yODUsOC45NzktNS4wMTVjNS4yMzktMC43Myw5LjcxOCwwLjMzMywxMC4wMDIsMi4zNjh6IiBzdHlsZT0iZmlsbDojRkZGRkZGO3N0cm9rZS13aWR0aDoyLjA3NzU7c3Ryb2tlLWxpbmVjYXA6YnV0dDtzdHJva2UtbGluZWpvaW46bWl0ZXI7Ii8+CjxwYXRoIGQ9Ik0zNTAuNjc2LDEyMy40MzJjMC44NjMsMTUuOTk0LTMuNDQ1LDI2Ljg4OC0zLjk4OCw0My45MTRjLTAuODA0LDI0Ljc0OCwxMS43OTksNTMuMDc0LTcuMTkxLDgxLjQzNSIvPgo8cGF0aCBkPSJNMCw2MC4yMzIiIHN0eWxlPSJzdHJva2Utd2lkdGg6MzsiLz4KPC9nPgo8L3N2Zz4=;" parent="1" vertex="1">
                    <mxGeometry x="658" y="266.25" width="25" height="25.75" as="geometry"/>
                </mxCell>
                <mxCell id="59" value="" style="edgeStyle=orthogonalEdgeStyle;html=1;endArrow=block;startArrow=block;startFill=1;endFill=1;strokeColor=#545B64;rounded=0;exitX=0.5;exitY=1;exitDx=0;exitDy=0;entryX=0;entryY=0.5;entryDx=0;entryDy=0;curved=1;fontColor=#000000;endSize=3;startSize=3;" parent="1" source="205" target="209" edge="1">
                    <mxGeometry width="100" relative="1" as="geometry">
                        <mxPoint x="607.6750000000001" y="236.65364583333331" as="sourcePoint"/>
                        <mxPoint x="659.07" y="278.3286458333333" as="targetPoint"/>
                    </mxGeometry>
                </mxCell>
                <mxCell id="53" value="" style="edgeStyle=orthogonalEdgeStyle;html=1;endArrow=block;startArrow=block;startFill=1;endFill=1;strokeColor=#545B64;rounded=0;exitX=1;exitY=0.5;exitDx=0;exitDy=0;entryX=0.5;entryY=1;entryDx=0;entryDy=0;curved=1;fontColor=#000000;endSize=3;startSize=3;" parent="1" source="209" target="206" edge="1">
                    <mxGeometry width="100" relative="1" as="geometry">
                        <mxPoint x="682.4200000000001" y="278.3286458333333" as="sourcePoint"/>
                        <mxPoint x="730.6946594427244" y="234.21875" as="targetPoint"/>
                    </mxGeometry>
                </mxCell>
                <mxCell id="226" value="" style="edgeStyle=orthogonalEdgeStyle;html=1;endArrow=block;startArrow=block;startFill=1;endFill=1;strokeColor=#545B64;rounded=0;curved=1;entryX=0.5;entryY=1;entryDx=0;entryDy=0;exitX=0.5;exitY=0;exitDx=0;exitDy=0;fontColor=#000000;endSize=3;startSize=3;" parent="1" source="221" target="219" edge="1">
                    <mxGeometry width="100" relative="1" as="geometry">
                        <mxPoint x="631" y="236.17499999999995" as="sourcePoint"/>
                        <mxPoint x="725.4999999999998" y="235.52499999999998" as="targetPoint"/>
                    </mxGeometry>
                </mxCell>
                <mxCell id="230" value="&lt;font style=&quot;font-size: 8px;&quot;&gt;&lt;br&gt;&lt;br&gt;Network Load Balancer&lt;/font&gt;" style="sketch=0;outlineConnect=0;fontColor=#232F3E;gradientColor=none;strokeColor=#ffffff;fillColor=#232F3E;dashed=0;verticalLabelPosition=middle;verticalAlign=middle;align=center;html=1;whiteSpace=wrap;fontSize=10;fontStyle=1;spacing=3;shape=mxgraph.aws4.productIcon;prIcon=mxgraph.aws4.network_load_balancer;horizontal=1;labelPosition=center;" parent="1" vertex="1">
                    <mxGeometry x="422.5" y="220.5" width="45" height="102.5" as="geometry"/>
                </mxCell>
                <mxCell id="279" value="" style="rounded=0;whiteSpace=wrap;html=1;fillColor=#FFFFFF;glass=0;strokeColor=default;" vertex="1" parent="1">
                    <mxGeometry x="240" y="620" width="730" height="354" as="geometry"/>
                </mxCell>
                <mxCell id="280" value="VPC" style="sketch=0;outlineConnect=0;gradientColor=none;html=1;whiteSpace=wrap;fontSize=12;fontStyle=0;shape=mxgraph.aws4.group;grIcon=mxgraph.aws4.group_vpc;strokeColor=#000000;fillColor=none;verticalAlign=top;align=left;spacingLeft=30;fontColor=#333333;dashed=0;perimeterSpacing=0;strokeWidth=1;" vertex="1" parent="1">
                    <mxGeometry x="339" y="657.5" width="621" height="306" as="geometry"/>
                </mxCell>
                <mxCell id="281" value="AWS Cloud" style="points=[[0,0],[0.25,0],[0.5,0],[0.75,0],[1,0],[1,0.25],[1,0.5],[1,0.75],[1,1],[0.75,1],[0.5,1],[0.25,1],[0,1],[0,0.75],[0,0.5],[0,0.25]];outlineConnect=0;gradientColor=none;html=1;whiteSpace=wrap;fontSize=12;fontStyle=0;container=1;pointerEvents=0;collapsible=0;recursiveResize=0;shape=mxgraph.aws4.group;grIcon=mxgraph.aws4.group_aws_cloud_alt;strokeColor=#232F3E;fillColor=none;verticalAlign=top;align=left;spacingLeft=30;fontColor=#232F3E;dashed=0;" vertex="1" parent="1">
                    <mxGeometry x="247" y="628" width="713" height="336" as="geometry"/>
                </mxCell>
                <mxCell id="282" value="Amazon S3" style="sketch=0;outlineConnect=0;fontColor=#232F3E;gradientColor=none;strokeColor=#ffffff;fillColor=#232F3E;dashed=0;verticalLabelPosition=middle;verticalAlign=bottom;align=center;html=1;whiteSpace=wrap;fontSize=10;fontStyle=1;spacing=3;shape=mxgraph.aws4.productIcon;prIcon=mxgraph.aws4.s3;rounded=1;strokeWidth=0.25;" vertex="1" parent="281">
                    <mxGeometry x="341.68" y="242" width="51" height="75.5" as="geometry"/>
                </mxCell>
                <mxCell id="283" value="" style="group" vertex="1" connectable="0" parent="1">
                    <mxGeometry x="110" y="756.5" width="60" height="70" as="geometry"/>
                </mxCell>
                <mxCell id="284" value="" style="rounded=1;whiteSpace=wrap;html=1;fillColor=#FFFFFF;" vertex="1" parent="283">
                    <mxGeometry width="60" height="70" as="geometry"/>
                </mxCell>
                <mxCell id="285" value="" style="sketch=0;outlineConnect=0;fontColor=#232F3E;gradientColor=none;fillColor=#232F3D;strokeColor=none;dashed=0;verticalLabelPosition=bottom;verticalAlign=top;align=center;html=1;fontSize=12;fontStyle=0;aspect=fixed;pointerEvents=1;shape=mxgraph.aws4.users;" vertex="1" parent="283">
                    <mxGeometry x="6" y="11.25" width="47.5" height="47.5" as="geometry"/>
                </mxCell>
                <mxCell id="286" value="" style="edgeStyle=orthogonalEdgeStyle;html=1;endArrow=block;elbow=vertical;startArrow=none;endFill=1;strokeColor=#545B64;rounded=0;exitX=1;exitY=0.5;exitDx=0;exitDy=0;" edge="1" parent="1" source="284">
                    <mxGeometry width="100" relative="1" as="geometry">
                        <mxPoint x="315.75" y="703.38" as="sourcePoint"/>
                        <mxPoint x="260" y="792" as="targetPoint"/>
                    </mxGeometry>
                </mxCell>
                <mxCell id="287" value="" style="group" vertex="1" connectable="0" parent="1">
                    <mxGeometry x="255" y="770" width="70" height="40" as="geometry"/>
                </mxCell>
                <mxCell id="288" value="" style="sketch=0;outlineConnect=0;fontColor=#232F3E;gradientColor=none;fillColor=#4D27AA;strokeColor=none;dashed=0;verticalLabelPosition=bottom;verticalAlign=top;align=center;html=1;fontSize=12;fontStyle=0;aspect=fixed;pointerEvents=1;shape=mxgraph.aws4.internet_gateway;" vertex="1" parent="287">
                    <mxGeometry x="15" width="40" height="40" as="geometry"/>
                </mxCell>
                <mxCell id="289" value="&lt;font style=&quot;font-size: 8px;&quot;&gt;Internet Gateway&lt;/font&gt;" style="text;html=1;strokeColor=none;fillColor=none;align=center;verticalAlign=top;whiteSpace=wrap;rounded=0;fontColor=#000000;" vertex="1" parent="287">
                    <mxGeometry y="31.25" width="70" height="8.75" as="geometry"/>
                </mxCell>
                <mxCell id="290" value="" style="edgeStyle=orthogonalEdgeStyle;html=1;endArrow=block;elbow=vertical;startArrow=none;endFill=1;strokeColor=#545B64;rounded=0;entryX=0;entryY=0.5;entryDx=0;entryDy=0;" edge="1" parent="1" target="322">
                    <mxGeometry width="100" relative="1" as="geometry">
                        <mxPoint x="320" y="794" as="sourcePoint"/>
                        <mxPoint x="270" y="829" as="targetPoint"/>
                        <Array as="points"/>
                    </mxGeometry>
                </mxCell>
                <mxCell id="291" value="" style="group" vertex="1" connectable="0" parent="1">
                    <mxGeometry x="473" y="680" width="467.36" height="181" as="geometry"/>
                </mxCell>
                <mxCell id="292" value="" style="group" vertex="1" connectable="0" parent="291">
                    <mxGeometry x="37.36" width="430" height="181" as="geometry"/>
                </mxCell>
                <mxCell id="293" value="&lt;font style=&quot;font-size: 8px;&quot;&gt;Private subnet&lt;/font&gt;" style="points=[[0,0],[0.25,0],[0.5,0],[0.75,0],[1,0],[1,0.25],[1,0.5],[1,0.75],[1,1],[0.75,1],[0.5,1],[0.25,1],[0,1],[0,0.75],[0,0.5],[0,0.25]];outlineConnect=0;gradientColor=none;html=1;whiteSpace=wrap;fontSize=12;fontStyle=0;container=1;pointerEvents=0;collapsible=0;recursiveResize=0;shape=mxgraph.aws4.group;grIcon=mxgraph.aws4.group_security_group;grStroke=0;strokeColor=#147EBA;fillColor=#E6F2F8;verticalAlign=top;align=left;spacingLeft=30;fontColor=#147EBA;dashed=0;" vertex="1" parent="292">
                    <mxGeometry width="430" height="181" as="geometry"/>
                </mxCell>
                <mxCell id="294" value="Public subnet" style="points=[[0,0],[0.25,0],[0.5,0],[0.75,0],[1,0],[1,0.25],[1,0.5],[1,0.75],[1,1],[0.75,1],[0.5,1],[0.25,1],[0,1],[0,0.75],[0,0.5],[0,0.25]];outlineConnect=0;gradientColor=none;html=1;whiteSpace=wrap;fontSize=12;fontStyle=0;container=1;pointerEvents=0;collapsible=0;recursiveResize=0;shape=mxgraph.aws4.group;grIcon=mxgraph.aws4.group_security_group;grStroke=0;strokeColor=#248814;fillColor=#E9F3E6;verticalAlign=top;align=left;spacingLeft=30;fontColor=#248814;dashed=0;" vertex="1" parent="293">
                    <mxGeometry width="430" height="180" as="geometry"/>
                </mxCell>
                <mxCell id="295" value="" style="group" vertex="1" connectable="0" parent="293">
                    <mxGeometry x="269.64" y="31.292313432835854" width="149.25" height="123.26" as="geometry"/>
                </mxCell>
                <mxCell id="296" value="" style="group" vertex="1" connectable="0" parent="295">
                    <mxGeometry y="30" width="147.4" height="93.26" as="geometry"/>
                </mxCell>
                <mxCell id="297" value="" style="edgeStyle=orthogonalEdgeStyle;html=1;endArrow=block;startArrow=block;startFill=1;endFill=1;strokeColor=#545B64;rounded=0;exitX=1;exitY=0.5;exitDx=0;exitDy=0;exitPerimeter=0;entryX=0.5;entryY=1;entryDx=0;entryDy=0;entryPerimeter=0;curved=1;fontColor=#000000;endSize=3;startSize=3;" edge="1" parent="296" source="299">
                    <mxGeometry width="100" relative="1" as="geometry">
                        <mxPoint x="101.19310344827586" y="78.58988764044943" as="sourcePoint"/>
                        <mxPoint x="134.69310344827588" y="30.388089887640454" as="targetPoint"/>
                    </mxGeometry>
                </mxCell>
                <mxCell id="298" value="" style="sketch=0;points=[[0,0,0],[0.25,0,0],[0.5,0,0],[0.75,0,0],[1,0,0],[0,1,0],[0.25,1,0],[0.5,1,0],[0.75,1,0],[1,1,0],[0,0.25,0],[0,0.5,0],[0,0.75,0],[1,0.25,0],[1,0.5,0],[1,0.75,0]];outlineConnect=0;fontColor=#000000;gradientColor=#F78E04;gradientDirection=north;fillColor=#D05C17;strokeColor=#ffffff;dashed=0;verticalLabelPosition=bottom;verticalAlign=top;align=center;html=1;fontSize=12;fontStyle=0;aspect=fixed;shape=mxgraph.aws4.resourceIcon;resIcon=mxgraph.aws4.ec2;" vertex="1" parent="296">
                    <mxGeometry x="121.98859076994168" y="7.331036970909653" width="19.057102628072286" height="19.057102628072286" as="geometry"/>
                </mxCell>
                <mxCell id="299" value="" style="sketch=0;points=[[0,0,0],[0.25,0,0],[0.5,0,0],[0.75,0,0],[1,0,0],[0,1,0],[0.25,1,0],[0.5,1,0],[0.75,1,0],[1,1,0],[0,0.25,0],[0,0.5,0],[0,0.75,0],[1,0.25,0],[1,0.5,0],[1,0.75,0]];outlineConnect=0;fontColor=#000000;gradientColor=#F78E04;gradientDirection=north;fillColor=#D05C17;strokeColor=#ffffff;dashed=0;verticalLabelPosition=bottom;verticalAlign=top;align=center;html=1;fontSize=12;fontStyle=0;aspect=fixed;shape=mxgraph.aws4.resourceIcon;resIcon=mxgraph.aws4.ec2;" vertex="1" parent="296">
                    <mxGeometry x="63.069271414544" y="66.1446944743728" width="19.057102628072286" height="19.057102628072286" as="geometry"/>
                </mxCell>
                <mxCell id="300" value="&lt;p style=&quot;line-height: 70%;&quot;&gt;&lt;span style=&quot;font-size: 8px;&quot;&gt;etcd1&lt;/span&gt;&lt;/p&gt;" style="text;html=1;strokeColor=none;fillColor=none;align=center;verticalAlign=middle;whiteSpace=wrap;rounded=0;fontColor=#000000;" vertex="1" parent="296">
                    <mxGeometry x="-4.155137757754289" y="-3.399102354933046" width="27.724137931034484" height="7.335056179775281" as="geometry"/>
                </mxCell>
                <mxCell id="301" value="&lt;span style=&quot;color: rgba(0, 0, 0, 0); font-family: monospace; font-size: 0px; text-align: start;&quot;&gt;%3CmxGraphModel%3E%3Croot%3E%3CmxCell%20id%3D%220%22%2F%3E%3CmxCell%20id%3D%221%22%20parent%3D%220%22%2F%3E%3CmxCell%20id%3D%222%22%20value%3D%22%26lt%3Bp%20style%3D%26quot%3Bline-height%3A%2070%25%3B%26quot%3B%26gt%3B%26lt%3Bspan%20style%3D%26quot%3Bfont-size%3A%208px%3B%26quot%3B%26gt%3Bpatroni%26amp%3Bnbsp%3B%26lt%3Bbr%26gt%3Bprimary%26lt%3Bbr%26gt%3B%26lt%3B%2Fspan%26gt%3B%26lt%3B%2Fp%26gt%3B%22%20style%3D%22text%3Bhtml%3D1%3BstrokeColor%3Dnone%3BfillColor%3Dnone%3Balign%3Dcenter%3BverticalAlign%3Dmiddle%3BwhiteSpace%3Dwrap%3Brounded%3D0%3BfontColor%3D%23000000%3B%22%20vertex%3D%221%22%20parent%3D%221%22%3E%3CmxGeometry%20x%3D%22456.5%22%20y%3D%22282%22%20width%3D%2230%22%20height%3D%228.75%22%20as%3D%22geometry%22%2F%3E%3C%2FmxCell%3E%3C%2Froot%3E%3C%2FmxGraphModel%3E&lt;/span&gt;" style="sketch=0;points=[[0,0,0],[0.25,0,0],[0.5,0,0],[0.75,0,0],[1,0,0],[0,1,0],[0.25,1,0],[0.5,1,0],[0.75,1,0],[1,1,0],[0,0.25,0],[0,0.5,0],[0,0.75,0],[1,0.25,0],[1,0.5,0],[1,0.75,0]];outlineConnect=0;fontColor=#000000;gradientColor=#F78E04;gradientDirection=north;fillColor=#D05C17;strokeColor=#ffffff;dashed=0;verticalLabelPosition=bottom;verticalAlign=top;align=center;html=1;fontSize=12;fontStyle=0;aspect=fixed;shape=mxgraph.aws4.resourceIcon;resIcon=mxgraph.aws4.ec2;" vertex="1" parent="296">
                    <mxGeometry y="7.331036970909653" width="19.057102628072286" height="19.057102628072286" as="geometry"/>
                </mxCell>
                <mxCell id="302" value="" style="edgeStyle=orthogonalEdgeStyle;html=1;endArrow=block;startArrow=block;startFill=1;endFill=1;strokeColor=#545B64;rounded=0;curved=1;entryX=0;entryY=0.5;entryDx=0;entryDy=0;entryPerimeter=0;exitX=1;exitY=0.5;exitDx=0;exitDy=0;exitPerimeter=0;fontColor=#000000;endSize=3;startSize=3;" edge="1" parent="296" source="301" target="298">
                    <mxGeometry width="100" relative="1" as="geometry">
                        <mxPoint x="36.50344827586207" y="18.861573033707867" as="sourcePoint"/>
                        <mxPoint x="121.98620689655175" y="19.90943820224719" as="targetPoint"/>
                    </mxGeometry>
                </mxCell>
                <mxCell id="303" value="" style="edgeStyle=orthogonalEdgeStyle;html=1;endArrow=block;startArrow=block;startFill=1;endFill=1;strokeColor=#545B64;rounded=0;exitX=0.5;exitY=1;exitDx=0;exitDy=0;exitPerimeter=0;entryX=0;entryY=0.5;entryDx=0;entryDy=0;entryPerimeter=0;curved=1;fontColor=#000000;endSize=3;startSize=3;" edge="1" parent="296" source="301" target="299">
                    <mxGeometry width="100" relative="1" as="geometry">
                        <mxPoint x="23.79655172413793" y="30.3880898876404" as="sourcePoint"/>
                        <mxPoint x="59.60689655172414" y="78.58988764044943" as="targetPoint"/>
                    </mxGeometry>
                </mxCell>
                <mxCell id="304" value="&lt;p style=&quot;line-height: 70%;&quot;&gt;&lt;span style=&quot;font-size: 8px;&quot;&gt;etcd2&lt;/span&gt;&lt;/p&gt;" style="text;html=1;strokeColor=none;fillColor=none;align=left;verticalAlign=middle;whiteSpace=wrap;rounded=0;fontColor=#000000;" vertex="1" parent="295">
                    <mxGeometry x="118.52554179566563" y="26.002985074626867" width="27.724458204334365" height="8.987387282338307" as="geometry"/>
                </mxCell>
                <mxCell id="305" value="&lt;p style=&quot;line-height: 70%;&quot;&gt;&lt;span style=&quot;font-size: 8px;&quot;&gt;etcd3&lt;/span&gt;&lt;/p&gt;" style="text;html=1;strokeColor=none;fillColor=none;align=left;verticalAlign=middle;whiteSpace=wrap;rounded=0;fontColor=#000000;" vertex="1" parent="295">
                    <mxGeometry x="61.68691950464397" y="77.80509561567163" width="27.724458204334365" height="8.987387282338307" as="geometry"/>
                </mxCell>
                <mxCell id="306" value="" style="rounded=1;whiteSpace=wrap;html=1;strokeColor=#000000;strokeWidth=1;fontSize=8;fillColor=none;" vertex="1" parent="293">
                    <mxGeometry x="25.64" y="32" width="164.36" height="128" as="geometry"/>
                </mxCell>
                <mxCell id="307" value="" style="group" vertex="1" connectable="0" parent="292">
                    <mxGeometry x="37.72" y="38.626865671641795" width="150" height="123.25559701492537" as="geometry"/>
                </mxCell>
                <mxCell id="308" value="" style="group" vertex="1" connectable="0" parent="307">
                    <mxGeometry x="6.37" y="20" width="117.3" height="93.8" as="geometry"/>
                </mxCell>
                <mxCell id="309" value="" style="edgeStyle=orthogonalEdgeStyle;html=1;endArrow=block;startArrow=block;startFill=1;endFill=1;strokeColor=#545B64;rounded=0;exitX=1;exitY=0.5;exitDx=0;exitDy=0;exitPerimeter=0;entryX=0.5;entryY=1;entryDx=0;entryDy=0;entryPerimeter=0;curved=1;fontColor=#000000;endSize=3;startSize=3;" edge="1" parent="308" source="311">
                    <mxGeometry width="100" relative="1" as="geometry">
                        <mxPoint x="80.52884012539185" y="79.04494382022472" as="sourcePoint"/>
                        <mxPoint x="107.18793103448276" y="30.564044943820225" as="targetPoint"/>
                    </mxGeometry>
                </mxCell>
                <mxCell id="310" value="" style="sketch=0;points=[[0,0,0],[0.25,0,0],[0.5,0,0],[0.75,0,0],[1,0,0],[0,1,0],[0.25,1,0],[0.5,1,0],[0.75,1,0],[1,1,0],[0,0.25,0],[0,0.5,0],[0,0.75,0],[1,0.25,0],[1,0.5,0],[1,0.75,0]];outlineConnect=0;fontColor=#000000;gradientColor=#F78E04;gradientDirection=north;fillColor=#D05C17;strokeColor=#ffffff;dashed=0;verticalLabelPosition=bottom;verticalAlign=top;align=center;html=1;fontSize=12;fontStyle=0;aspect=fixed;shape=mxgraph.aws4.resourceIcon;resIcon=mxgraph.aws4.ec2;" vertex="1" parent="308">
                    <mxGeometry x="97.07775914053025" y="7.373485608742498" width="19.16744827914626" height="19.16744827914626" as="geometry"/>
                </mxCell>
                <mxCell id="311" value="" style="sketch=0;points=[[0,0,0],[0.25,0,0],[0.5,0,0],[0.75,0,0],[1,0,0],[0,1,0],[0.25,1,0],[0.5,1,0],[0.75,1,0],[1,1,0],[0,0.25,0],[0,0.5,0],[0,0.75,0],[1,0.25,0],[1,0.5,0],[1,0.75,0]];outlineConnect=0;fontColor=#000000;gradientColor=#F78E04;gradientDirection=north;fillColor=#D05C17;strokeColor=#ffffff;dashed=0;verticalLabelPosition=bottom;verticalAlign=top;align=center;html=1;fontSize=12;fontStyle=0;aspect=fixed;shape=mxgraph.aws4.resourceIcon;resIcon=mxgraph.aws4.ec2;" vertex="1" parent="308">
                    <mxGeometry x="50.19013254359573" y="66.52768970293981" width="19.0853607062163" height="19.0853607062163" as="geometry"/>
                </mxCell>
                <mxCell id="312" value="&lt;p style=&quot;line-height: 70%;&quot;&gt;&lt;span style=&quot;font-size: 8px;&quot;&gt;patroni replica&lt;/span&gt;&lt;/p&gt;" style="text;html=1;strokeColor=none;fillColor=none;align=center;verticalAlign=middle;whiteSpace=wrap;rounded=0;fontColor=#000000;" vertex="1" parent="308">
                    <mxGeometry x="-13.47028625215472" y="-5.632677728182238" width="60.47150912535273" height="7.373485608742498" as="geometry"/>
                </mxCell>
                <mxCell id="313" value="&lt;span style=&quot;color: rgba(0, 0, 0, 0); font-family: monospace; font-size: 0px; text-align: start;&quot;&gt;%3CmxGraphModel%3E%3Croot%3E%3CmxCell%20id%3D%220%22%2F%3E%3CmxCell%20id%3D%221%22%20parent%3D%220%22%2F%3E%3CmxCell%20id%3D%222%22%20value%3D%22%26lt%3Bp%20style%3D%26quot%3Bline-height%3A%2070%25%3B%26quot%3B%26gt%3B%26lt%3Bspan%20style%3D%26quot%3Bfont-size%3A%208px%3B%26quot%3B%26gt%3Bpatroni%26amp%3Bnbsp%3B%26lt%3Bbr%26gt%3Bprimary%26lt%3Bbr%26gt%3B%26lt%3B%2Fspan%26gt%3B%26lt%3B%2Fp%26gt%3B%22%20style%3D%22text%3Bhtml%3D1%3BstrokeColor%3Dnone%3BfillColor%3Dnone%3Balign%3Dcenter%3BverticalAlign%3Dmiddle%3BwhiteSpace%3Dwrap%3Brounded%3D0%3BfontColor%3D%23000000%3B%22%20vertex%3D%221%22%20parent%3D%221%22%3E%3CmxGeometry%20x%3D%22456.5%22%20y%3D%22282%22%20width%3D%2230%22%20height%3D%228.75%22%20as%3D%22geometry%22%2F%3E%3C%2FmxCell%3E%3C%2Froot%3E%3C%2FmxGraphModel%3E&lt;/span&gt;" style="sketch=0;points=[[0,0,0],[0.25,0,0],[0.5,0,0],[0.75,0,0],[1,0,0],[0,1,0],[0.25,1,0],[0.5,1,0],[0.75,1,0],[1,1,0],[0,0.25,0],[0,0.5,0],[0,0.75,0],[1,0.25,0],[1,0.5,0],[1,0.75,0]];outlineConnect=0;fontColor=#000000;gradientColor=#F78E04;gradientDirection=north;fillColor=#D05C17;strokeColor=#ffffff;dashed=0;verticalLabelPosition=bottom;verticalAlign=top;align=center;html=1;fontSize=12;fontStyle=0;aspect=fixed;shape=mxgraph.aws4.resourceIcon;resIcon=mxgraph.aws4.ec2;" vertex="1" parent="308">
                    <mxGeometry y="7.373485608742498" width="19.16744827914626" height="19.16744827914626" as="geometry"/>
                </mxCell>
                <mxCell id="314" value="" style="edgeStyle=orthogonalEdgeStyle;html=1;endArrow=block;startArrow=block;startFill=1;endFill=1;strokeColor=#545B64;rounded=0;curved=1;entryX=0;entryY=0.5;entryDx=0;entryDy=0;entryPerimeter=0;exitX=1;exitY=0.5;exitDx=0;exitDy=0;exitPerimeter=0;fontColor=#000000;endSize=3;startSize=3;" edge="1" parent="308" source="313" target="310">
                    <mxGeometry width="100" relative="1" as="geometry">
                        <mxPoint x="29.04921630094044" y="18.97078651685393" as="sourcePoint"/>
                        <mxPoint x="97.07586206896553" y="20.024719101123594" as="targetPoint"/>
                    </mxGeometry>
                </mxCell>
                <mxCell id="315" value="" style="edgeStyle=orthogonalEdgeStyle;html=1;endArrow=block;startArrow=block;startFill=1;endFill=1;strokeColor=#545B64;rounded=0;exitX=0.5;exitY=1;exitDx=0;exitDy=0;exitPerimeter=0;entryX=0;entryY=0.5;entryDx=0;entryDy=0;entryPerimeter=0;curved=1;fontColor=#000000;endSize=3;startSize=3;" edge="1" parent="308" source="313" target="311">
                    <mxGeometry width="100" relative="1" as="geometry">
                        <mxPoint x="18.937147335423198" y="30.56404494382017" as="sourcePoint"/>
                        <mxPoint x="47.43479623824451" y="79.04494382022472" as="targetPoint"/>
                    </mxGeometry>
                </mxCell>
                <mxCell id="316" value="" style="edgeStyle=none;html=1;startSize=3;endSize=3;" edge="1" parent="308" source="317" target="311">
                    <mxGeometry relative="1" as="geometry"/>
                </mxCell>
                <mxCell id="317" value="&lt;p style=&quot;line-height: 70%;&quot;&gt;&lt;span style=&quot;font-size: 8px;&quot;&gt;patroni primary&lt;/span&gt;&lt;/p&gt;" style="text;html=1;strokeColor=none;fillColor=none;align=center;verticalAlign=middle;whiteSpace=wrap;rounded=0;fontColor=#000000;" vertex="1" parent="308">
                    <mxGeometry x="30.200753689195516" y="54.29768274588272" width="71.80179188358403" height="7.373485608742498" as="geometry"/>
                </mxCell>
                <mxCell id="318" value="&lt;p style=&quot;line-height: 70%;&quot;&gt;&lt;span style=&quot;font-size: 8px;&quot;&gt;patroni replica&lt;/span&gt;&lt;/p&gt;" style="text;html=1;strokeColor=none;fillColor=none;align=center;verticalAlign=middle;whiteSpace=wrap;rounded=0;fontColor=#000000;" vertex="1" parent="292">
                    <mxGeometry x="124.25" y="55.34589552238809" width="62.47" height="8.982462686567166" as="geometry"/>
                </mxCell>
                <mxCell id="319" value="" style="edgeStyle=orthogonalEdgeStyle;html=1;endArrow=block;elbow=vertical;startArrow=none;endFill=1;strokeColor=#545B64;rounded=0;entryX=0.008;entryY=0.456;entryDx=0;entryDy=0;entryPerimeter=0;" edge="1" parent="1" target="306">
                    <mxGeometry width="100" relative="1" as="geometry">
                        <mxPoint x="450" y="794" as="sourcePoint"/>
                        <mxPoint x="420" y="799" as="targetPoint"/>
                    </mxGeometry>
                </mxCell>
                <mxCell id="320" value="" style="group" vertex="1" connectable="0" parent="1">
                    <mxGeometry x="387" y="770" width="73.5" height="63.5" as="geometry"/>
                </mxCell>
                <mxCell id="321" value="" style="group;strokeColor=#000000;strokeWidth=0.25;rounded=1;" vertex="1" connectable="0" parent="320">
                    <mxGeometry width="63" height="50" as="geometry"/>
                </mxCell>
                <mxCell id="322" value="" style="shape=image;verticalLabelPosition=bottom;labelBackgroundColor=default;verticalAlign=top;aspect=fixed;imageAspect=0;image=data:image/png,iVBORw0KGgoAAAANSUhEUgAAArwAAAImCAMAAACGmalUAAAC/VBMVEVHcEwmQF8mQF8oRGUmQF8mQF8pR2ktTXAmQF8oRGUoRWYqSmwoRWYoRGUnRGQmQF9Ri8QmQF8nQ2RYmdQmQF8nRGUnQ2NantYoRGVYmdQmQF8mQF8mQF8mQF8nQ2MmQF8mQF8mQF8mQF8mQF9YmdREcq1DcKxeqNkqSmxEca4qSmxdpthYmdQqSmwmQF8oRWYqSm1botcmQF9YmdQmQF8mQF8mQF8qSmwmQF8qSmxbotcmQF9YmdQmQF8mQF8qSmxeqNkmQF8mQF8qSmwmQF89baVYmdQrTG8qSmwqSm0qSmwqSmwmQF8mQF8qSmw9baU9baUmQF8mQF8qSmwmQF8mQF9YmdMqSmwqSmwqSmxYmdQqSmxGcrBeqNkmQF89baUqS20qSmw+bqRYmdQqSmxeqNkqSm0qSmw9baQqSmwmQF8mQF89baJNdrkqSmwmQF8mQF9YmdQ9baVNdrk9baUmQF9NdrlYmdQrS25eqNk9baVeqNleqNk9baVeqNkmQF9MdrkqSmwqSmw9baUqSmwmQF8qSmxYmdReqNlNerhYmdNNdrleqNk9bKNNeLlYmdQqSmwqSmwmQF9YmdRNd7lNdrkmQF8qSmw9baU9baNeqNlNeLlNeLlNdrkqSmwqSmwmQF9eqNk9baNYmdReqNlNeLpNd7lXmNMqSmxeqNk+bqVeqNk+bqQ9baVcpNhMd7hXmdNeqNk9baU+bqVco9dNdrleqNleqNlNdrlNdrlYmdNeqNlNd7kqSmwqSmw+bqRXmNNeqNk+baZYmdQmQF9eqNleqNlYmdRXmNMqSmxeqNkmQF8mQF9YmdNYmtRNdrleqNlXmNNMd7g9bKQqSm0qSmxeqNlKgrA9baM5YJFDdaJeqNk1XIVHda43YIgwVH01W4ZPib9RjsE9Z5leqNlaodEzWH5SkMNKgbVQisEvUXQyVX02XIc7ZZNAaJ49ZZY3Xo0yVn0yVnxMh7JSj8RQjMBGbqo3W4o8Z40mQF89baVYmdRNdrleqNkqSmwvLL9aAAAA+XRSTlMAgHcLiSgFA3oHDaIWExC3CEAcZ24lGRgtYH9d15AwhUtGZVDlGChAVhCAH1CFVT0qLzqfjTVhsv6qEB94aVmvf3RwkiLfgEdiNUK50jJPt3jw9aWw+j96cWyIdjBMfJgiOoCQZ71L/J+ZzZUgyFvcn8+Io/eav5gft5A316fPbOCKv+zZwPS3niA30mI4QKeW6uNweJDpnK9ReGNIt5+OxlBZ+G5Yf0heWHDoSMkomL+IaMAkiK+RrjivpU/S4GHw3dJtqpiOx1fG8Lmj2Fvz999wQqDMm8Yr/bTBg+Sf8GCo4cbt5oxzsZqRr7qu1pjjcaHTh8ruyXNQdNz2AABB3UlEQVR42u2dCXgT17mwx5KszZKCFEs4VmzLdgFj4gXHC8axHS/BG3ZYArZZjAHHxECBLDSQzYUCTSgkQBZCkkLWQtLsG81C0uyhpG2SkmZp9rRp032994d7r59/RuucM+fMnBnLWJK/9z63MZpFI82rM9/ZvsNxAAAAAAAAAAAAAAAAAAAAAAAAAAAAAAAAAAAAAAAAAAAAAAAAAAAAAAAAAAAAAAAAAAAAAAAAAAAAAAAAAAAAAAAAAAAAAAAAAAAAQMIx7rbbzuV5bOPGSYSt4zduPCxsvu22KfBVAbHG9P8LsYOwdUp46yT4qgCQFwCiFTaAvEDcAvICiSnvVJAXGFXG3y+wmCfK8i4WznsXf96p8CUDI8PisIFRlvea0MbX4EsGRlXee1XLexXIC8SsvNZ/ssn7OnzJwGjIu3jxsgcm8bz4tQnflFy6WtgyadYDixdPB3mBUeAuWXk5zmzx/6cxw4O+7tMFdXakkw8EeYGR5v6QY2+Tt4fUtCQ5Ra9aenLDf2eAvEBMyuvKCf9ZUx8OHTwZVZFdctzEI18Knfgx+JKBUZHX2xj5u329PRjurtKLdvFUy8t7LnzJwKjIiwS0DkO7P9w1m+j7gLzAKWPcBwXjx0+ZMmXiP02EraYe9N/V5ZzRXEiu02H8ced44cSf3z0dvmRghEiyBmOBLMLGMh/2QokhoxHfyekkHFkderFU+qMwTZ8+3QTfPMDEw0KDrDB+4UrJppKasIM50gPr9LjNhtJMfCejWXqg0xv6K1l6WhiOBrBzbUiWjZJCsFRUOXPKh7zCLjmcabBaaS++WVgUbphtIC8wEvKmistRgx3baq1H/93jjyLKSrEgN8eDl8WrjKJqXjrIC4yAvK4kxNUMLBLNRUIEW0Z74I+qDBdaznrxorgKCX8zQV5g+PJeiG0woDGt2ywTD5RFdhZ3sBHiBiz+MK43YiE4yAuol/c36OvZeGNCdiFVSu+geIsvS6x9D1JiS2p+yYPov2EKBqBB3i9rxLUni0GyZ2qZWLqIysYerDbnyRD1CmeLj0pLkpxVJw6KTe1fg7yAhpK3tzpdVxR6iqdWSXc1iJpxUx0RVSW7mnSR0EGvi7xul/4iOH24DdnlTe/x7QR5AW1hg8VnyPAKWtoI7bNIQ0E4aihbpSfsWqgjxRcZVsKuNf6iuSwpI7URwgZAFb8OyXJN6NGeml5XkkXSjFsdFtHSGVIvlXza9vAg367wqQZbSHuaSqvK03tyg3tN37Fjx+0X7dhx773j4d4ACgiDF677mv8fkSz69PXpOY3SfZ/96Tvv/Fzg4p+/c/HFb7zxxkRzNu28+iTnBH6Piy9+h99b4J13fvqodDerr6f0LbR1jeutgdsCMIMFCfpVfCjrTU8vdKCvv/E/GH9qlDlpzdf47j/HwpAiXXp9u4lLwt6mxAl3BNAqb6gFIDmVr8KJuswuxm1cJHvWnfju74gbHgbTzc7Aue2l6HG5aXBHAI3yJotGKOiduvRqN03eh2XPOoUmr60mvadQ1N+ciwYfOXa4I4BGeUuxXi/etfQau3p5x5Pk1Wf3pEtmBxmQERE6GBMJsIPo4iNVwtLMGam9w5bXlZORVURQ0z0oE8QAgBzVoioToW8tgMv75TDl/SllQibfiWxXlPfpC4PcC/drjHF448aNT/M8R8osxhWK+87oLQg/H6a836Lu6khSlPclmC8/VgnntruWtFU0AMFVx7HLK7/gxHR2eTlvGbO858LdBHlFtGdT6k6nTF7xfDaQF1Ahb2O4TyvXx42OvJnlob9MOpAXYJfXEWrZta6SO8k7IygvFx5OYSsHeQEx8ilxw4WdzjWS8v5Ubm9XaGxkGrnw/y3IC/ISNwfDTHc1p0pe+ZFf41TJy3mLAv91lhE2urPeBnnHvLzvl1vo8hqM6uSVH9uwWp28oZ69Guk4+LSsHCOUvCDv5e6kVAdF3twiTp28f8qT2bvpTyrlDeYgqbdISl0vr7WwWuyM919//fXFcDfHGOe+9tqv/3UtD99J4dHpQtPVxr/55lk8Bz89ePDg/Ov/dP38J2Xlvece1MYJnQdoZbUpvwALG+65R1beJ+fP//SO+fx1/O0O4ZLefDMYUFcl5VjwJwQw1hA1QdmTzIG6/Vl44fis8nn+sWgcz/Tp/qxi/RXkIWC2Nr5Q9u8j7DzxY+XT3oBfypv+K80y66XhDTDW8IiboFw9/kG7EnlvUD7PcaSwLW5rJezTUlGM/DtFm7zWeiwhFMg7RsEmKDjq+eQ1WuSdi/7TuKlTMk6se5dF9hgSZ0vk1Q/2eMgVS2CsUYOPuNFXJy1TL69jF/5Kx1w0dLAeP4TvcsCmXt6/JEmbHVKtcB/HJHXSupXlEvXy9jdLXuqtWCoTMgis6Vcv732EnQrdcB/HJKRH7i/Uy5ufKX3N0hAOHUydA4TSsbhTvbxnKIc+AMgr4nLF01QQh52tqQ0oa5l7iNjSkRIdeau8cB9BXu3ytpFfzvQHC721S5lqeQQuZ5HXUgf3EeTVLK+7gbLBmnKIW1NJq5jtckRFXmhuGJvYpYNuGnMvUi1vHr1HuPO9Tuq8374m1fL+xZya3WgCeQF+toRP9A+bM9VsNtek3a5a3k0baFuKKw61tdA2tuSrlvd0ztpeo+MvM8fpocg7jl8M5kqBqePgBicE91911VXXCDyHvJyb7P+PvixH8KEkUL86HTdmudLZqcHrmhQHpx/opmy1VCideLlU3tAzo6Scv2RzeYkNlzeyCMBUuO8Jwb2hG/oS8nK9I62GV6A+WxyWRk1eS0OX/7/N+yndCG0mzfIGcTn5n90xXU2ZA+QdS/Ja2nMMWw3eZIlAEnm/UTh5bwH55c2hEQ4tbb3EPRqUuhe+UZLXT7nH7dMZDIacIjsi7xS47wnBbYi8Vbl1ZrMut5Fc1XkFN+aTfPkSsoNYX2uqjEwfctUSd1mTJ3teU/4n+KW8QtrPF+giMTVmV/OPka9B3gTj3NAN/V03f3+9aRaZerpE3uVNtb1yJ8/vJYlXgBi/sMHCXGQHcdc2ScKGG0k7ZoqrndxqkDdh5bUqNjIdvEHg2e9/+ez3BR599HTORu4jo4e8tkp84EIR6Qcg103RnGLnTn/0Uf81PPufR5/1X9VB0p72HHKFDeRNMHmRCpu+XuaQ4oXif3Xvt6uQt6l2A8HnDhXybqhExvqskW0SRn6DU0HeMSFvZq7MIU1rUJcrOig7ujZhLxgPFBiJIWwDvs5KAa2BeM1cdL59azPIO2Z5jChvbpnMIYew2RCmggPkels/ajnnqKCNdWxtwwaS55H3NA7gA87cnSDvmOWu1157jZ9p+a9rHxO/Wi83HHyhZARuRy2xoOxEd8wkDN0NBwO16Fxk8qjItFrJLCL9LmZ5x039dLvQwTZpEvSwJRRedNytQW7fBumwGc/cPuE/913q5xGem3n++pTAjwQWcaau/XqZk1oahEg6cvxfhRPcHD7Bu/7oYoAwYCeFWd7QbHkgwTAZ2OUl6tJcyT/4b/5fGrfbZZsl/JFCrYujHv9LfwMZ89WEqEOa4RSypADxijN3ePLyrQAdMvL+rUJ5So6rsklG3ua5Nk61vDXid83OhtucoIiLJWOWenk508KGJVT5/mJhKf4L6PIe76McNCB35iKRr0YD3ORERRwQVsmm0DtO27D07/Swge0i6PJS63qkXrxIW4Qo+0R1O9zkhCVLTyywpJWzA9RNj1Dlu4/pEsZRj/8u9Zi+pTIn1EcW4rZDwZvAuCKxglduodWWrpiSF29M5ig1z3QH3OIEJvJc1clVy2Wm9oyGvGkLmeSFZrLEJtJcJjv3a+HSmJLX0cAkLzSTJTjh5jJZeRt6Y0pe+bYyQ7Dj2umD25vghIonWXlr6W1Tl1Lle57p/SdHXd5gP7cJamsJTygwlJW3jYsjeQsDcXwNNJMlPoHmMntOPMm7X24qUpk/XLBkwa1NcLYvX/DNHxYsmDHjm0vPEbiRODtBXxtj8pJzQ8y/0f8Z/v2HGTMWLPjDFwuWz4cbHPc8PCWIdFigZHLw2aQTuGl9FKYNRU8MU94J1OM/yWuhjdLsJi7sspxhevGViycFgPG98UF4QPZdkk2vMMlbhPdROIr7+wqOp6Tsz2+my3vHMOX9bn/3ppSUlL2dh4p6sUavjkNM8hJmaF4I613FqbyLleUlZnNaE5z0Y/IszVvYwAvVsHDNUpdJIWwYrrw/COxgcbc25+/lfygFff3Fwe5scm6oBQzy/gbkHWPydhW5+7sbKtra9nbmtdhZY94oyRsOUXpb+zZVtrWl5K9ZWrxXq7zXgLxjRV57Zofw6N6Skt/c2mtUWWGLsrwhbJkdXQ0vpKTsWpgXKv1B3jEg77KSZDvayHQjUV6Ta+mazgEhPOjKa/HIDIjk+QlVvuuZLu466vHflm+70wtx934+JuZ/WG4jg7wOd0lu8zsgb5zK+6IzN0enE5KCmnU5hc40j/H3+P1+X/CBDy+bikWzz1JiT97Ib9C4oeiQEBMf3/Q+/mF+b60q83nrzTr+/8y6av4T26DkjVd5J4kiSLu7xFde9xF+v7/YQGj/jz1593qkr3kewT/MR4M12ZkuC4QNCSZvkHOYMpjGnrydpCTVM/APc450n/D64LeBF2NCXtkRiKMj76EOkHdMYPL3KC2+4vbF45XvN0neYrmx3z+kyvcM09VNpB7/HZmjWrtZ5J0h3Wf8lK+vmzLl4alTx4MYcYSjjuV+LyDs1HQo5uTdUKBRXs6qAxXikHTCoNxvWORtbpV77E9cJPDMM8/s/Ozr66+//g6B559/8bP/nsx0VcY/ffZg4Phnnrn++v/+c+gEzz8vF3aY9hNelMRAVxPy9VS7wIQ4JFmyOGRa6R9Y5O1kW8/XtEIciDat6GY6qnuFOCnO/jbGD5PCIu8jWTmSnhUYKRmfYPfN0VNuYgobdumZTm8bQpoAmld0MBzUsQLJV7rpSDTlncElG3zoPtmwNnF8gtw4kzfdTuiUWsAoCoG0IXQEY/62pYrHFG1Dh9gs3B1NeYUPk21IhoI3wYrezHX+dLxTf8Fzxuk8r/A88tE587XL27QCe6Fy9waFQ4q3YcPcD60wsb0ZIW0lt/2cP3wkfAzh45whfDD/8lXG+qzIvvJ5gYAYJjVUWbGac0iSmGptnHZ5D72AvbDsw78vE5jF84DA4wIv8twtsG/fvr9/dvcE5JD+IRvbmy0k5YKybiZmGfEklYc+bRakIYlXHMGi15tEWVPCXWFirNmTfHoPe+G8kwzcjRzSMlTM9mbEdSkGMmkRjSEQMdmTQIK4JV0YEuAspc+rzSNkJ/dsYnySVwxf3g1DrWxvVkRYl6JDpjPF5w99623gQNxir+Oq8Po3ZqC08Gpha/PiKgewF76nXl79UB7bm/VK51LYauXiZUtOkscIBW9cF7319fJZc/UVku0djD5tzh++vNw2xl+KRTqX4rhCc7S+bl0JGBC/ON9SrG23Sjpe+5aynXxLnxZ592EnyWf8KClqgoYgpat84ECc4jLUmJTbOXfhgYNsKmdxodkRBXmP7tIor6NWMa1eYw4f+qaBB3GIxR8xFComQbLigcOAhen8+qGlUZC3slKjvAPKzRRmvqfQVJ5uBxfiDZ+hSviPSbnOUrRJ4QFNxj20IQryNmxm/DwDaJ/1GuWgQR9Ix+YwD1pAh3iivTSUtT/Vo7jzpiYt8hYNWaIgbyfr4AZ0tBCxgRqjPJT7vTHLawIl4gV7UmRAmUN5PKulzaVB3jzJsAQmeR9Ej2lmHdyAjNOkdA2iiDvHDTA+J4YZ//RzPNcePnx4OldYKu4UTVLOF94rDjyNe9nesftINOTtZx3cgCzl3cXQmoeuOldTag9Nxnz77cfAl5jiyfDEtX2l6Do/7YUMIorMIE5aIFAgiVYv0yBvyxBjfUo8N6l3LsMBq9Afrd3cFZ7P9jr4EqPy/sNEf3xSqYwEDkv72N5x79xoyOtiHdwgmhVqqmQIGtIkCYhdvwN5Y5Mrw/JKcnkWKvUzTV606Fd/mjhx4nU8EyZ8/vmEyQLjeOQijrZNmuT9FXqMUX5ww6JFEycGrmz1nybw+K/sH5/zl6b0hRAmQYVLXggb4kZe0yqFY++jzol8ROao97qiIS+3Wy581bT6CrWeCvLGn7yct30k5N29JirybukeEXkHPSBvQshrzBoBeY0rJM/7k1rk3Zw/EvISu8VfAnljXd7rpBvr7NGX1yOtaWmSt7ZhJOR1Etp1bb+DvGWxyaSwvLvKpKKlapT3ZvpBmUMOTfLuxA4aqBwJebOkrcc1+SBvjDL1whCTvT1WfKt8R8XtWuTt34b8k0/Gf4hJ3o/70xDrC+QGN0zWKK9rEH+lqrSEu2vHvTy33XbbleBLzGKTdIbKd1RokrfZP/1Szy8g0bmr4sjuoaEVLzDJ+9m2oaFtWzbzKYE70oRopvvICMirw58KXh0MzokXCtOxwjcruvLyzs7dPdAWcPZo5YGuvKUbTBbGsMHW0tFXkLJ5S8Dio9v6+tPs0ZXXko4Xu2XgRPxgz0LL2tyyaMgrlLP5A4FydsVuv7OiVSLGqY15hRUwCiqGghanFHR3ZNqiIq8XyTtiGqyDYje+yC4VD4CVHdZLl/epoLTF/BJple/xzvIF7WZ+tZWiDaZKyRQINnkXYUel8YMbbC15C3e1CRLzFrfxK6eEVhNUvfoK4TljW58JNsQbntISxtYyurxXH+ID2veQ4CB00NH86MgrbnLzF8XhgOJ4QffnmuTNFGcYzE23ggtxSI05Uvja0rXI+yHvbEMXvoSUnxck43cma5LXOERYmtWe1h8IizXJmxGJEmxZ2eBBnBa+hsiYVpnER4phA4lt/dGRV3Zwg6awwR1p1S6HYjeeI19DKFyQ6ajQIq9jqEWbvB/gh23pi7K8PaHnjcsAjQxxjTWJL3y3X/zGG298+ajA9wWefQXZ512qIj+inrd4yKNN3on4YUdlBjewrr5yxrP+z+X/hG98+cYbFwvJL71maGSId3xZloPya71rkbdVOn1Ho7xygxtY5ZWs//4m51kP09YSAFfpJTLyGosK/luDvNLpl9wEbfLunatF3v+a2+2Wkfc+aGRIFB6gyevuTknp7n1Ag7xdR6Ilb0GbppLXtDS/cleejSLvn6HYTRQOkpbLtnY0VOYXWTSGDZvaNMq7muFnwBo22PmPUFBkJJW8cNMThbPwe/tNS/7cgTWhhoibqIrcRD1lyv5oybtGJnMDw6JtvX0pc7u+wD/gL+CmJ6y8n3SJR5JrkXezdIL8am3ySpa2UCcvj6lFskLXGXDTE1bey5HNWuQ90h0teQmj2lXKS1jkCOQFeenyEvrFJl+xhOcigasFbuU5X+AJgYcEXn755QmSxpAhN8gLsMuLLpf9I6oiX9HamyykEQnasAxRk1k72qhX9kN5eW+Hm54IWEsGez7VKu+H71FW7u0dckftCrfRVs4s3vIZo7yShT3/YjYXNsLNj312PHZugMXYBpuvzmyudzq4N+Xlff7SSy99+TuX/kTghwLfEfg2z+NHX2ghvmfRkD5q108b3JC3re2DSwOEL81/Zf/FX9nN8vKezpmSa8w95ppkrCNw+uuvvx74vsaDOTHAxtCk2Nci9W93oc5szmkPdu4ryCs8oCkr6+hrt63hzj9fCF9v9Qey/pB2yZKvPrxC4BKBwLqBE9gv+HHRCfmz/f0rIVZegpxv2ax9nSsKKAkkN0l+UAR5Q9+D2YwYHMnpNhXMiTl5Le3l/P0qREocZXmpSfJN+Ss+1jSlXYYrWM734TbqUEnpCkY0eQPwBveYvWlGkDf2uDB0Oy5vrDGUZuVKw9RfKC2X3SqT1rR5xejIK7MmUT+e0/8cWXkDBnsNpUnZjutA3tiU931vJjk/wxkK8loq5CLYvFGR92q5M6RsUJD39+TKa1HqH0He2JSXmnb2XQV598q2e2mbmybDkmHL66lUkPcrWm7BSNjwJJgTD/LW/GMqz3ae+QJ/u+QgeuPy5Bfyi0F5uWY0v+qTBw/O+lT4bMKHFD7sBHOZkrxTwJw4kLcaS5dj2YzOJLZXyi8LMXlU5L1I/hyV2OKA+s1YJ7POCfLGk7zkzJ31krtYjC6Zsl+hvyEm5cXb9g4sVfrNBvgc5I0pnruK58c8H1mY3OUXaBWn1m3q5KIh7wfsF3xRFOTl8pCRQWmEuUTludLXvB9fFeClH4O8McXqVdLMItWkvAXihlJ9rSUq8k48xfJylaIZoKZaUk6VHB/+SqEXLIlVrBl4G28dOfJrjVTRDrQonXVCbMq7QbTYYTe5QwMve72F4EjsYjEg8asxi7YQUEOovlOkvOra6Mi7RPE0EWNdtDmc3nKlOAKIHUxZolq4pdStVN+RLPkeR/KaKkOxwlwXbR9fqlwUAcQYPeEGTn2GzJrZHYEe1pQWLkryrma/xKujIy/n3kuqu6E460KqmyFrWeyTFAwVjKtk13ufK/SwduRzcSwvl98feHrItVM7U9GvBYhp6nyBmKFKdq9e/pZba40M51sds/IGulv2LpXdyedfx1UH7sYH3hqFmMHPmq5ItS0G5b2C5UxCd4vi0yN7UBxMATFObrlnvfLa0vv7Ork4l5db2E8bRi+OHNKTIDl6/FC+lSFBonu3MYryqphJcWv05DXV7ld+eujXrTKBE/GC2+DMUhZz16bmuJeXO9Sm7G6Gp9FgBCvigzR+/Ud3qVLZy8eKlR6W000cFXkvYTqVpWJTq8Iu1gy7sJgV2BsXJJcKD0nXKvnbZd9s5Hr3x7u8nU2WCvnPaQkM+KjKgMghDigLPiKr5MveASFWzO+PmryTR0Ne93F+Qtsm2ZihNPh0Sc7QgxuxTrhLifNkyORXDvSwGds8oyDv+dGSN3D5Da1yMYMt8nWAvTFOtqgz35FBbS+zBxuY3CnKp/wgZuXN7wjEvVQrPeJBovYMSJYe0+TmoPXsZMp+e0N5GrrzFM+5aFTkXaZ8nuLgIpwtByg7YJGTI8MBhsQu+GBrU1K7TNDg36PWHq/yRi59E7mDWNJA5m94AGITdPiqnyxS35K+LVL1TmuIjrzj2C/ziejI23wo/HmIQ3M80vYW6yqIHGKLSffffxfP4sX/r4ZQPJHKXqSkUpxKEaPy2kX9wnldpJiBEArbB35x//2B72scmBMD/CY0H/bfxM06SUaRVqRxSa/QUMrtjE15kfRqKb345kxyS+H28Ozh6WBOLMl7G3n7IDZzy96G3lal6cOjI+8shZOgV23DUuhwZT3kw64EeWOKaxTk5Qo/vvEcgRkCCxa8/8VydLGcgcwoyGs8tfJakefF9uXvf7FgwQLh8/k/6Y0P6DiQN67kvZe2x4vyy7c6NuuHL6+KC34oCvLuRyJ1SSbBL6gVBJA3NuX9PW0PhbWHuaaCeJO3Ce0TPh3/gDNoB14flhcqbDEl70d8VumcMqt6eem5pQU+jz15LdikZyZ5rUWDZvOnIG/shg02ZyqvsDcTubnzleS1y0xH6P5sVOSVbW0owHollORtzOVXOUjlV+cQhQ0gbyxwlTTmrRKWUtEVJhsp8t6An4M6e9wysOKfLK5dFm15P1tDP0Em3rFCl1dfUo2sSgHyxlhT2Y9/+zOet9/egb4eWFWlzlfFXa8oL3d8A/Hcjs3bmiY8LvAAzywB/3onF33IL34iLIGyJLhw4BIVF7wvdL7ACf/+52XL/CupXBE6obBoy6crFtKON9ValeQ9R/gFC8VtvRPtEZ4kZCT8sfB9gbyxjyXTa/6nvLzPf5fnkx8EEFaw+rawYJSwctQlR7aQk+5siOI6bFvIpX7eirn6cfyF/eAH+JV9+5Mf/vBSZN8b8Q8ohP/BJVSA+EYhbLiPvojgZspIFuOK1qhd3W7KwLai3UdXU6/su/Ly/ghueqKwHb+3zzLK+xV1MsZuQkg6K7woG48QFTz+osDdPPsEHhSQTBcyUX8HG7Zs0SrvOXDTx7y8j1BPeYQwFOY8lorY3fhRtiHq5HXPeyAvyIvf2y+bbcOUt+JAtOQtHqJPRZrMKO/v8Q94I9z0xC15m3ZVLgx3TNxOVeRm6in3ElLifk+TvK0rTMOT11TU8FeQd0yFDaaW/MqCFs3y5m+Olrx5u7lhyGtq3VXZbYOSN3Fby77G7+33Axt6uyoHOiya5O3bolHeffhR3Vs0y2taeoA3lyMsIngT3PXEIG3dPoq8PPa+tuN/0yBvx7ZoyUsqw5nkdeVvzu8N7CddATMH7nsCYKpONU2ly8vj0iJvy5A1SvI21GqSt7myITLAQbpw9tJSF9z7eKexlG+IGs+P0/73E6GB2jxnIfvQw4anqOd1EbrYtMlbOUC/+gnUK/ukSVzN2y58qBsDA+6fEAbcb+f0ukFI8BTflNeHukiL6EvhaJGX1LWgTd7NBVrk/QH9IwdDCT7BUzIIEMfRbkZk6rBMilot8pK62JjkfRA/6kh3dOXVp4f+MqZWQ+Ebr9HuoOjetcus/UiX9yI3Nc/BewujJO/uvOjKy+kieXGSMyCdf1xiWy+eV5kkM8LqXfrAnKGhbVva9uY3NxXjFhO62C7TJK/cEB/6wJxv0w9yiSdfDqaCCfGHL0msm0PHaZH3iqV53QX7247sHhIs3lzZsPBQa3FgoBmhi02TvPYhfO6yxZXZmtedv6ty85HPtMjLIdlG2hVWRQJiDo8BXTJv0KVJ3vDIQqOrpaMvf6DivRdWDA2teOFo7a6jR/rTbCb18v4Ke3P/0AaTvbioo2/hgZS2917Yxv9QVuw+srlyV0HXPzTJm4xkvbLUlYMP8USNGZ3Mbsrihiev6FS2tP7mzobKLSv8Gr9XMZDf19HiMqqW19rb0n+oq6B26OiW3fyphnZvOVqxf9PC5o6l7nDQep0meTns07ZnpIEScRPtGvAMT76SqMkbon8bZy9uPbSwoXLzFqGw3H2kjWmi5seBgEAowYe2vfBe29Ft+X15rWkeYkyuUV4ntlKrqboeJlXESbGbblUoijBuoioiM0Qgc0iU7NbqLsrr2sQk72d8QDBQ0LWmqWWD/+nQJzO0gZtIvbLvcCqKXj6JNl/4TgqkI1y8+ElwJKYIZDF6m+fBUmkpm+yNvry2IUmuh5NaYt78oyMgr1fSPWGq7nwjNG/4XPAlBuUV+CNh5k66JfryErrYmOTdiR0kN7RBs7yWdOlrVV+CvLEu78PSjVYzF315uRcORUXeuXtHQF7OTMi+diHIG4fy1jeOhLySLjajJnnbCkZC3irCkMjfgLzxJ6++VOHgH1EVeVfmqAo8bc04TfKSZnKGWUS9sh8qfKYsE13e28CXmCKSxUhalS5XGlx10y9/+cv/Ff5flby7KqMi7+41cvL+MoB6eUt8IG/8yXudcrsRgf5wDDCu6fNx4ybzTOCRS4nUeVSTvIuwo1Y0MX7E48Zx4wJXVrlzwgTFxYckn9p4Mcgb6/LOTVMugyQ4RMvppC1ke8vmF6Ihr3RoA43IcoeeCobd8edN9vqfg7yxLu/qnCx0JEoSQ+fSgMh4+wG2t+zHZ7FN1iJv8RDjdB39rsjfeQy/LzTSr8rKVV7+ABgdxu8Icu90Tp+qE3Wx2RjGBDZ3kYs4WTKH7FGQt3XIwvZ2xeIFVBpalA+oi7SxWHWp/LtMFxjPA/khYxlbek64uK1TXvQxs5LTIK+ki41N3g/Qg9ZsY/xMTeKKnaVC+VNZQ+sBWarTbeBEHJFsCC4oaElSfsBWWLXIa8KrWmzyTkQPWriF8RM1I4ONiiuUgyFz4GP5DI3gQ5zRHhhaVqM8GhB/Bh9nnPj1QnMU5D1wlPHzhFI0BOkoUDzCVS1UPw1OcCEO8ZbaWdrJWnENNjE+ZI9iiw9O0CJvSgXjpxnAYuMDSxUPyeIcWfUwBTM+sZvry7yKoWEFXmPqYmy8qm2Igrxt+xk/TIpCsEMg25DkAQviFtedOUolj3T5y7x+tpPjXWxs8q5GDzqySaO8XNpehSOchgwwIJ7L3rpMbDKbxFRpk+nSPraT411smuTd3aVVXq6vWbYJxZDLlbtBgfilxyPUtmXCgA2V0pJ5QwHbyfEuttUa5DUOHWJ7M+su6WvH6Usf2pLK+Q9m6QEF4haHwS+IN4vWWGRpI/RvGfeynb0JywqtRV7PEOPQhmJCp5qjgrJmsmUw2E2js4ME8Up1UFqLuY7cLFrQxPaEJpI2hDZLTP7Lh1/xi6hdLXCrwPk8Twg8JPAyz3knL5uAnaOF8ZdCKqGXkmt7zvWhcMGlAwnilUg7WbKh0F9Mzl++/HKeswVuuOGGT244Xbu8Nkw825Y2xZ6DAqxno3VoA2OMQsirM/+G7z57ww3+zyJ8qMuXvym82hj8qH5K9WBBfILMAC/xt9a/gieyvVy7vNyKDiQqfe89q/IxB7YhxucNMdrVSah7nUH4MFbzoLjpLxkSjsR9wesn1+CWyns24bhdjEK9IG4pMLZtYencMM3dLdawm3Vow4CFRV5TeZJN9jsA4gTJPC5jTs9NLPJ2MrYwHT2ASNnLdBAqeQHr0AbS00Ai7/vShhVnNogQjxBm0DouYpG3WW5p1tsfeeSRm3meeuqpv/71RwI3Cfzlw4uuY7qqcZd++Nebgyd46qmv/h48/t13371drbyS5bK/UX78AHGB3sxyv89mrdmHuJQ6J/J5psvSlHKXUd7lhJ28kB49DvG6We73DYSdihdqkveOEZSX1EfBJi8p/wgQs4x/jefw4fdfPzxeOUwkyetoiDl50zo1yvv0hV9u3Ljx6aefngRixANPhuezTZFs+wWLvLJtZaMjbwcpknmFQd4fh76L+0GMeJbX5Gn3LcHv93+Kei1xIG8XVoc0upbmdZ0vaW0wpxYWNSL11N+CvHEq73X+XNDZ3nqzgK48O/NdibzN+QMpKSkD/LITaXYWeX9Cle96pqvTlnK3IRDAmzbwzh7gr3dvQV9/2o/wD/NvTu8uKkz1f9g6b7bwgX4W+i7uAjHigYfD8hbwNzHHV+ay0MOGZ4PVmt6iNQsFK/Zv6u5oqTTGlrzGDZsPdTWEnA3/xm7EP8wCcUXN1e7L0XW+DfLGFVPD8k6QbHuTIm8ktnAtXdP53ua2thS+LHZbRlde04bW5vyUtraKhi15LdIBYrLyBoGSN17llbY2nKUkr59ufn6YPbO/OX+vEFF08gtZOU6lvOHgYH+4oG0jneockBfklZAnzpGgd7ce6gw8s/mIwjaC8gqVsIaAsx2ZSEFrrdQqbzhsWAxijA15W0itqnxE0dLRvek8qnzPMF0dPeXuJ0hAi1BcwCTvDJA33pnyHM/TAtOV5f0+6QwumYXYfzhi8srki+7v0yrvuY/xvH748OGHQYx4Z/zBg3f8cz7Pi49v37596tSpxJVxTBUxJm8fccbHeP76p27fvm+Z8IE+fuDgQVjmJ9Gp8a8lXVUjt09bjMmbLzdI0+nPiWOE4WOJj9E/KZNf1HSU5NWUqX9ALpVkcARSOQwfS3hygvdYdoWgufRZt9+hyrdo5OSVnZiUpBf/KoHExRrKGikrb0FaHMkbkja3BG5vYlPnYZG3rz8O5eWg6E1sXOFQV1bepr6Ykld2gHHE2aJcuMGJTEZ4drpOLseCO1+DvBOZruAZ6vE/oR4jO7VDH0mfbYC13ROYkkjG03K5hUws9F6KH4yYvC87qA8CubXa3JHUDO05cIsTF0Mkl0x2kdyOtCDTNve/qPJ9zHQJd1OPf6iCli+6We5anaLU5xkOuMeJik90n5O9GuRtqu39Nl3eFIaMOd1/pocNloZOcjZhLKU/ile0cpcHcpMlKiZxdVx+KXiivMaCAiNHl3diWoVSTnVbZfNOuZi3o5KYynyvXB+FTix8PaRCT1C8acRKOglSl1ZLmzCRjC7vdZx1r3yq6KW1bu566vGXCq0hlXkqghhps4k1CW5zQqJHb6ysvNIHtakrkMJs0TPPPHO9wB08zz//t2XP3ydw++23C2vzrZELHboa+J/E5PDxD/5ZOMHz4eOvD7zNfscw5A13IAKJxeAGdnn78CqSvpKcRL8FK2sz22itGMaBbvSFXnJ7XOZmt3Z5x03443RhfW2424nCYX5877XXXvuvXy9mlrcfe3q3VFCSQOvxNOquWnKuc3cF/npHHq1FA2sZI6bLIct7bmjs+YVw2xODHxNXjJZd1zUTKVBNBQ3UaGCutFq3idBXkCcd61NAbUPomoskKpXto7AOgrxjT95CuaaByX8Mi8s/32tlFo4gtAS01uJ1ftMmQiPYXPpJ3cI7ho9o+lzmStNyQd6xJ2+Zj7TvwW9966cC9/AE80HlzZXLGt1FiCdctWjI7KltZSmzkeK7wBiY5SNcyD3CFX3rW+eQ9vQhv8HHQN4xIa+tmrSvZJLbF7vkm79aSWN4jAfET/qmWlIlboP88oGttY8wTFHjF41BwpEFoY+6EW57gsn7hLmwXU+u6VDl/URhjV/KiK++ynCUnE+eB5G3Rv7Etq+Y5A19Co+z2mAwvA/yJhjhZHO/t2bmCnnLdN4iD6u8zyqdnfL0b6kILPGn309ZqHJTscKJz2GT11PkFZKT5Thd4rAB5E00ee8NB6FF5WbzMXN9bibeinBQtby0RljHXKEprLiCNimjzTRMeT3OHF7aY+VOFyHmBXkTVt7gA1ef5hsUSq1yZ5VJs7z51BK0c5OxeS5tnJexTenEM2jyuvzWmstLbJLg5zDIm2C8/tpr1wo8t5gYLfJlWIlXx9tQV5hpvUO1vB309as7XqAvY5xWoFremzYErPWW2DhK5M6ncriSZ9KkqXDbE5pUPGSwJPsGP2VKqSOGnl6nuKKpNo+2sblDtbwfeUskPR02WCVwTJJLGsMyX7W81CQPa1Ic/tCBvLXBplpeUjtvGayzNiYpc0ZH3lrygpn5gbigv9aqppFCxAIWeXNhFNmYpMobHXnzSWN2PJWhZtw0cntDSnTkTbXCjRyLGOuiIy9pnnxRbW/4b8d+Qh9db756eW8k7GSG+zg2Id14SWvDo4qncUhHLC48gES6h/ZLIou8DvXyLrGAvAD1xjt0n6qXVxK+OlLwnt+0CrwxuMClXt6bk1L1IC9AvPGW6h77dg3yHkf7yloqpN0Wge42VfU1brk0bHAlVetBXkB6433r+Zq7Fnk7EVmba4mdapsOmIYr7yv8i+4Mr/g8JpjrPkZBJo2XGXzCf1B5+aG0svJuF3KSH1y27OBZAm+++eZ0dDCkGGFaO7+Lf8+D9/3l4EHhWLnxDctDQ4pDnO5/ucRQGDnK5YXbODbxRuLOxqyagBGm6dP9MxgDS6ocUBg8czFeOD5IHHYeYEPtzp/i+yvMlFzoX0muU7gg4brCvzNh9sQ4Pqf/w3e/+PCTU2C65RjDNGX8+H0PjueV4P209QxaiCFFZrlKef8smwGt4R518jYOSp8QwdI313RleNEjWCtljBFZoHi+w6xz0OLhdPnkX2/gMiqMh1EpbzDrYw5hqmiJ4WOQd6wSWaD4U7OdXplzpI+ivIXBcQuFxOVU7gZ5Qd4HSZv1qcE/qpNHVF65nfWrgn84y0ibJ4U/wRS4nWNV3itJm8PjHizrTWrk3R5FeetC8XOmD+QF2OVtD480bC8fJXkbUyW/JJAXEJgqL292e/jPHpnMOo+qlPd/VMhrsEhiGJAXQOUlhqk1kYzNcnW2EZQ32yepPaIsBnlBXqK84hEw5Zns8s5XJ+891D2RJQEV5B0PtxPkpehiKqUJlv3lcOXV0RozkDy7RHn5PrfxPFOefNIEt3NsMX3SYp67eKYryctlk+aJOWrSza3DLnltNek9PsI0IjTDOQwdA1RgptSdgiSnptcLReP31ck7jhQ2mMp06YN4AWy2gbxAVORtFFf3TUXm9JpgC8Rw5f1pcIO9ML0nW1QAp1VzIC8QFXm5uqpIsNCTHZniI5H3edmzTqDJGyyAU4MFsHG9EeQFoiSvfr3wv+7B9FR0mIFE3j87ZU6a/EcZeUM/DR8/Hbgam29cB8uyAprl5dd9dZqTaiTdFa+8/8Xll1++nOeLPyxYsGDGjOu89BVUfXXGGTP4vb75g3AAf9zlL18u2clUVp9ejy+X0WyDOwKwYkUX7jFmG1bmkko/fUboL0toPo6T1qdRF+rk9YZXJSon5/7Nqs7ICo/FWfzrXz/36LPPPff0tXBbACUuvOqqq6753TXXXHN/UGS+MuU0VtWT9jVEisSws+0ZpP5kvaFEsid/PGlXN19bs+amp+f684ncFmqP/jHcGkCJl8QJURtT0+sCAWgdYY5EnWisYl04dY3VIE2RU5UR0bxHXHITOhiCQ9C5TD6ASAN5ARWEFwH4/VJdujdcNFqk67YVFor+0e4TiZyL7elMigQdmeKNbulZfaIuEb4A/ih0OT+DWwMwy/tRNtI3kYs3JCQj6aJMPeJ90SAjRzyssh7JLlaCL+uC/0huBHkB9fLuoDzOQ6ViKfrIRypqaYaIoo7SEup+fPUN+02kV6H/vhfkBYYvbxpanOKVrWqkPcu2LiShZz2yowVPE4KeJxnP/gfyAlGQl0sSF4o1+Gid5EL08Z8UKG/bDei4m+wS7DgHUoJLhlGAvAA7P6PKqzdQi2FCPMDlCA27hfgsCLOkvVh8KukAtrC8b8OtAZjlvV/aEOCMFJecorx8f4U1K1txL15wn0yTxuKNGzc+LfAc3BpAiR07dtwrcBshHUKozmZZT0hG4m3EXynaI5mE4SLN5zSHRkQONsL3D4wQvdWE6DeEBx/WUJJkN+Dta+WkfFDGVYHKnqcOvmJghBj/3L9+zXP47PeJ0y+wiMDf2JtaqBg18JzzH+G8r71/9g74koGRYar8nEdUzKC2WI2NLO/TofNCYAuMuLzEkjdXNKbBnhHK/IC0lZXlEk+8EeQFRldeR6SQzRT1sNlWRaROssrLC+MegdGRNxITFCKtwKY6X+jPDA7kBUaFKxXkXRjoHjPpfByh7ia0VjSDvMBoy0vKq3vhVb976RqBj6SZRDL/6N/yu5euumoSyAvEnLzhUewzCBtXhw+9i+R9aOOv4UsGRlXecwkbp7PJ+xp8ycDI8PDT/ECDjRfykOQND0e7TbW8524Mnvhe+JKB0WAY8gJADMs77v/og9UAAOQFAI38FuQF4pWfiRM+gLxAPHHuY489dliA1A0x7jVhy+v8LlPhmwIAAAAAAAAAAAAAAAAAAAAAAAAAAAAAAAAAAAAAAAAAAAAAAAAAAAAAAAAAAAAAAAAAAAAAAAAAAAAAAAAAAAAAAAAAAAAAAAAAAAAAAAAAAAAAAAAAAAAAAAAAAAAAAAAAAAAAAAAAAAAAAAAAAAAAAAAAAAAAYHRxlJRnrTtt68qVK+889mpparYLvpJTzptniBintPeT4r0fZnyLX80S8zjrlRXpdLr0pCBZhgAZYgw6r9Muew6zeO8AWaFTJpn5N9AN1jirVH9p1sL1a6edwLjlgmrKmUp0YlJNSqdvRPbXBV5MRl/UWZUvMxc9oj7h5P3W/4gYr7T3GeK9T2d8i5dPInzAeFjSCRamnVnqpNtwJtM5Zp9W71bxlZW8NYd2MVtrLIQDnKjoOUpvcAzZ/c7Ai+556HtlKF6nG7vMYyCvanl3ou6eXBJVeQX2ZLmGJa/Aymor01WZvCtlz3NLj0N6kAHdxSP/Fl5k7znJ5O9jWpnClRrvRA+Y0wjyqpb3VkzeyyZHW94TJ+atsg1TXr78TXIwPImVzzhbJyl9TVuRPS6QfQvXbGTn1LCMM7Gfm0L4ocOuK4cDedXKu/okzqzoy8srU28cprz8OaqVHsTHmM6z1ieJYlEhvewFpuhZ344FDoOqgobTOJBXtbxXSOT93rgRkPfEia2e4crLqyJX/zPVzWM9z6t4IV6O/kpkmibS6XtmYb812fBj6wlVsQrIS2DyZRJ5T744IvKe2JM2bHlPrE2mNzFcoOY8+LWgB99ppL1LJvoDqRFvs2CBw6sy314OdkGFHMirWt4HpO6efGhk5D1xS+Ow5T2xh1atcaxUF4Jg9SkPGjjU0Ur3O+Wi4xKsfa6I+uXZ0bdTCLNBXvLNOI8g78lfjYy8J860DVveE3vIj3T7SpXnme2UKwppVf9U9NeIX0spa51t/Qn5E4G8DKe/m+TuySdGSN4TK/XDlvfESlJTrUf9meZkywUOW4neNSK1rGlOSW0O+wmlUr47rGV5WjYH8qqWl1zwshW9WuQ9sX748p4oJcS7tHJ32uxbbqFV4+agkYNtj6J3WJNalnSPtHksNT/9WvRKDBzIq15ecsF78uStIyUvVlhpkndau+RaSHW1Petyymz+8tOaVmhYOY2wB1rDL5qnFDjUo48AUq3OfIKhAMeChpkWkFeDvA9R5D05UaW8Z54mZetMQjftTBNV3vUGKaVv3Sk9yVZ5qfxFniET28c2KP2lHEPV6lHwLnkOsWtNNnAgdT3kYj04mRzIq17enTR3WfqIk5SDO2N7+h5cmBqqvJRWMIvvNPwcRbLPat6rHlJfsqlwLX6iOrn+B3ygjP5Mlj4IrC1ttrRr0YF9JzoO5NUg79VUeRn6iJNYaiacJQt7Xt+pVl4e3y3oOd6Sbe8/sZLWnKZfh1uOBg7JaOCADUIzyBf/5N1OrJLswNwkAfLKMAHpoLgE+dcDUZKX47KxJs1k9fJyLrT5f7Ze5il8YpWefiIvdjHr0M3pMl0VaJE6h3q1WG1MEhRgz4l57RzIq0HeS9BO4SXif55nipa8XDL6mEzSIC/eFJArLttRWabJD3BpRwvxaSVygUMPPZiV6RHD2sHuNMl1cyDvAfIyyzvue0jBy32ABA77oiYv1vE0U4u8nJP6LK5DZVAavNM+W+6hjQ6XEZeaSXJNfihZcnU2rHK51QjyapH3cSTIncBx56vqI2aXl8tACjubFnnR1rCVourPbJVNpr5p1EKcp5rSGoYGDWv1sq3nd9IH6GCDyW6xcSCvBnnRDoqr+VceRIrendGT14bcMZ8mebORiNNEKcnuZCjI5CterxJjHHTMzbwS+XdA29TEwyYtWEuajwN5tcgrVVWqc5TkRY3QaZLXgggR6blCrJqWxvCVWpD4eRrWpmBFts5zk4QvVfVUEgfIdbLNJiAvq7xIkPCy/6VZeCARLXnLKfGiCnk5pMwK9+ymKbRLEZsckGPMeFhB6KooQkKNM/VK74A1CYejDGwWRmIHDSMo7yLCEF50cO+S6MmbTBn+p0ZepPTOJlaO5rCN6DatpFUg/ayXtAagrV/zypTfAhscaSAF7pJ4G+RllfdW0uSJJSqKXjXyWqaRo0w18q4jyjtTYaSMcvx8Ap8Qb12LN6ZlUNv6qKA9EfMC4UyNbCMzyMsqL1rwXhJ89QPiq8OXl5tN7mNTI+8FpA5iF6II81N4puzwA7TYXKtHG27ZGrf0M6XVQjvaxrzWAfJqk/cichmLlsf6qMk7Z/jyIs/6NFL4+irzt6qTrzWhDbXrkZJ4D+MvBGtxKOdfegvtms7kQF5N8qLRbWQEJDpU5/FoyWulzJNVIa8eaWgNFVqrWCf9oiDVvLXSKGcmfUAm82QzdHDkLVau6IRsRRHkZZV3Fm3s+UPSNogoyFtGCfVUyIuMYJgdenUruf1MEfEDfJpVqdjUVLpjvwAD9u+VFpBXm7zG82idaejw9AejJG8dpcKjQt5jxJ6F2bIlKGPTBaH1IIc2g87O/h5lyLNi3gWkKtwYkveGsxV4g1HeF6nDGFCtz4+SvCspD152ebOJTU82bYUi9kyvUaoeRgppn5p7Z5CZDlLHjTV51SEj78v04GAWa9Y9FfKW0JqmmOV1oaPKsknhSJKKrzVXaTS47RaScqtU3TsLfZbTVhPIq1HeX8lUy9BBvhdFQ150oIr46c4qrxvVYLaF5GC5iq81UzGhYy5p6r5e3c0rm0abd9/Igbwa5T1fLrsTa0cFu7xJ1NyfbPJa6udQCsByrYNcPMqdBeuk6QLL1N49WuBQzoG8GuVdLdsVgXZfXDF8ecvR8qdEpby2VMnUs3ALaSpbfhpCw5tysOyQBA7qJ5tZ1hLdvYADebXKe4X8ROGH2CazMcprNKDurjXR5L1gnZS3jklTnIsainW0X4USJoaa3qt4bU3Ds76MlDRijw3k1Srv5O/JNyjczZbwlEleUy7e3o/MdNCUt2Fe8vDltSjL62PL1aNA0nCbLEBehGUKTbloaxk14SlyW7KSCThz1ktmvq+1DFteUddUPXGwDgMOxZiX1NyQof7+GVcOs8kC5EUK3suUOtFmMSU81ZQxB+td1SLvaSZKX4JXxdfqVnSS1NCrJacYnnL6xForyKtZ3lmKwxcmXMbSR6xJXqyqokHereJ7X6i1PoXM50wn1TLJHWwaBoJh0zGnlXAgr1Z5TQxBwRUsWfe0yIvn/1Yv72kWqoPrVXyt5QopmWyzmRIFamhxyOBAXs3y7mMYsrv6MobJbBrknYM3lKqWdxVaZ2qk5uJR0wCbzRY0aA0cfNjosjEq7xlnKbBcWd4nWBrC0DxQq6Mk7xzJnVcpr2QlFKM4oJyjIgXCVrmpFHgOaa0jc4Iky046GjPyRmFU2U6mLgiWvVTLO1uSi1mdvGdWS5uqZmprK0OmIs9ma53VMPwH5I2uvGiZum8ihfOUy2e18q4lDAJkl3f2W9mksSxvaZnChj3JJSnzsLm/69YqJi0FeU+FvKsvO6mBWcOXd14GKdhjlbe0hBISDCJFM/O3uk7W+VUn5Oawqc6MB/JGSd5LtLhLzrqnSt6V5DvOKu+ZtCYqZHTYCSfjl6qfLVdfQ5M0CJvRyfAzjSDvaMiL5tZj5+7hybs1lzJ8lTowJxlrqjpG6Zk13aJlwAtSH5tjlQ0ahP4w+57hJHYEeaMj7yxt7p582aRZ3jnH6uhLttNHlTnnsSVGWndCfZXNKmv8KsJ4Bt9whkaCvFGRV2vBS0x4isg78wIpr76VYa7JlH3GygyJrMFGkxkYql6MTb3oKFusVzl3GmmqWekwBqWDvFGR93Gt7pISnqrK26BeXnxdHUriXeMtqpsC0NTkaJZ1zj2bOIQXyzq9CuQ91fLSVl1jYecplxefhjCNnNkLHTowJ1m5tjZTxkMstW4kqzk6GV5VRxvIGw1592l3l9BHPOLy4suVzSE2JrjmsbVLhPVEx5hPc8sU93NEG+s1jycHeaMh7xPDkFc6mW3k5cWe1ZQESRlYy4bCiPEsuWR36HJAyDg1NLWkOO0PyHsK5P3g5HBYdurl5TzYFLC1pBSm+ACw02TLXqyNBF2uCg8aZFYDUtHRBvJGQd4lw5JXMnjyFMgrae5dSeqmq8PHztD7KqqOYfsmyQQN+FLsPdSQAuQdaXnRIeaXnafM92SHrZ8KeSXNvccILW+StHjT1pMjUks9PkoXXRgFm/SAJ9IxblW9/AXIGyV5l8lHAQQ+kO2oOCXyct5pyp0V0kFgcwzSmb4O6RT6achseaxrTTp8zIM2y6WDvKdKXrSDQmnBiQDny/URnxp5uWrM3vWEzj4dYdT4nUnOSIxhzEy9gJD4EQ0a3lIcuJurqaMN5B22vGhuvYuY3hxdMOjlUZFXknWGlNf2GHnaw5mnrSs1GNZfsHIOQ8KwQoY8vBdoGaED8g5b3odULbIWrH2fJzNL/lTJazxNubPCtlbDhLo9SNsFNtWdPMYHW80nA+Q9JfKihegTjO/+wEl6fpJTJS9nxVIfzCEMv2lUb++eZJlC9RbKukLoKlhsy/mAvMOV9yHmpNFIHeZ79ISnp0xezoOlLplN2NO2UqW7M9GZa9hU9xratbA5DvJGU95fnWRO149wCT1SPnXycmmzlTsrrBeoS/+A1seqZjPOcMeii9NA3pGX93ymJDhS0GlDSBvFKZQXX6r9xEpCL5opaRqzutMy0LqWCW3CnSnTxZzLMtYN5I2ivKtPMqUfI3ARtXX4VMqLL9VOHsGQfQvrbE68KaFaRVIbbEEqF8g7wvJeoWJxQJSJ6GQ24yjJKxndS5xZ4Sidx1LsSjrgsEG88qN10QUyGQIHkHdY8k7W0EER4lZaR8WplRcfH0mZWdH4lpK+0y6QjE3DRviuVZgngU4mVg4cQN5hyfsAY7JzEjtpMypOsbx4cy9NmirDHrmAYRXhXVapzISHzgmakwbyUvj+xSKmK+19lnjvN8MvLzlfzAR1V4AeHEn95D1NhMb1y9eLz6EQPVpfPQ2BnmKkKIM8pX7Peh8pVHag51VeZEqPXonSKkQu8c6rOABQEKYw64IzI53C89YeyyhPhq8FiB+chq17Zu9Zub7GAt8FAAAAAAAAAAAAAAAAAAAAAAAAAAAAAAAAAAAAAAAAAAAAAAAAAAAAAAAAAAAAAAAAAAAAAAAAAAAAAAAAAAAAAAAAAAAAAAAAAAAAAAAAAAAAAAAAAAAAAAAAAAAAAAAAAAAAAAAAAAAAAAAAAAAAAAAAAAAAAAAAAAAAAAAAAAAAAAAAAAAAAAAAAAAAAAyD/w8hmfPtYNDZiwAAAABJRU5ErkJggg==;fontStyle=1" vertex="1" parent="321">
                    <mxGeometry width="60.95791001451378" height="47.90072568940493" as="geometry"/>
                </mxCell>
                <mxCell id="323" value="&lt;span style=&quot;color: rgba(0, 0, 0, 0); font-family: monospace; font-size: 0px; text-align: start;&quot;&gt;%3CmxGraphModel%3E%3Croot%3E%3CmxCell%20id%3D%220%22%2F%3E%3CmxCell%20id%3D%221%22%20parent%3D%220%22%2F%3E%3CmxCell%20id%3D%222%22%20value%3D%22%26lt%3Bp%20style%3D%26quot%3Bline-height%3A%2070%25%3B%26quot%3B%26gt%3B%26lt%3Bspan%20style%3D%26quot%3Bfont-size%3A%208px%3B%26quot%3B%26gt%3Bpatroni%26amp%3Bnbsp%3B%26lt%3Bbr%26gt%3Bprimary%26lt%3Bbr%26gt%3B%26lt%3B%2Fspan%26gt%3B%26lt%3B%2Fp%26gt%3B%22%20style%3D%22text%3Bhtml%3D1%3BstrokeColor%3Dnone%3BfillColor%3Dnone%3Balign%3Dcenter%3BverticalAlign%3Dmiddle%3BwhiteSpace%3Dwrap%3Brounded%3D0%3BfontColor%3D%23000000%3B%22%20vertex%3D%221%22%20parent%3D%221%22%3E%3CmxGeometry%20x%3D%22456.5%22%20y%3D%22282%22%20width%3D%2230%22%20height%3D%228.75%22%20as%3D%22geometry%22%2F%3E%3C%2FmxCell%3E%3C%2Froot%3E%3C%2FmxGraphModel%3E&lt;/span&gt;" style="sketch=0;points=[[0,0,0],[0.25,0,0],[0.5,0,0],[0.75,0,0],[1,0,0],[0,1,0],[0.25,1,0],[0.5,1,0],[0.75,1,0],[1,1,0],[0,0.25,0],[0,0.5,0],[0,0.75,0],[1,0.25,0],[1,0.5,0],[1,0.75,0]];outlineConnect=0;fontColor=#000000;gradientColor=#F78E04;gradientDirection=north;fillColor=#D05C17;strokeColor=#ffffff;dashed=0;verticalLabelPosition=bottom;verticalAlign=top;align=center;html=1;fontSize=12;fontStyle=0;aspect=fixed;shape=mxgraph.aws4.resourceIcon;resIcon=mxgraph.aws4.ec2;" vertex="1" parent="320">
                    <mxGeometry x="52" y="43" width="20.5" height="20.5" as="geometry"/>
                </mxCell>
                <mxCell id="324" value="" style="edgeStyle=orthogonalEdgeStyle;html=1;endArrow=block;elbow=vertical;startArrow=none;endFill=1;strokeColor=#545B64;rounded=0;exitX=0.5;exitY=1;exitDx=0;exitDy=0;exitPerimeter=0;" edge="1" parent="1" source="311" target="282">
                    <mxGeometry width="100" relative="1" as="geometry">
                        <mxPoint x="466.9579100145137" y="742.9503628447025" as="sourcePoint"/>
                        <mxPoint x="712.7272727272725" y="869.8800000000001" as="targetPoint"/>
                        <Array as="points">
                            <mxPoint x="616" y="920"/>
                        </Array>
                    </mxGeometry>
                </mxCell>
                <mxCell id="325" value="" style="rounded=1;whiteSpace=wrap;html=1;strokeColor=#000000;strokeWidth=1;fontSize=8;fillColor=none;" vertex="1" parent="1">
                    <mxGeometry x="768" y="712" width="164.36" height="128" as="geometry"/>
                </mxCell>
                <mxCell id="326" value="" style="edgeStyle=orthogonalEdgeStyle;html=1;endArrow=block;startArrow=block;startFill=1;endFill=1;strokeColor=#545B64;rounded=0;curved=1;entryX=0;entryY=0.5;entryDx=0;entryDy=0;exitX=1;exitY=0.5;exitDx=0;exitDy=0;fontColor=#000000;endSize=3;startSize=3;" edge="1" parent="1" source="306" target="325">
                    <mxGeometry width="100" relative="1" as="geometry">
                        <mxPoint x="659.1674482791462" y="816.9540754199575" as="sourcePoint"/>
                        <mxPoint x="737.0777591405302" y="827.3703512803843" as="targetPoint"/>
                    </mxGeometry>
                </mxCell>
                <mxCell id="327" value="" style="edgeStyle=none;html=1;startSize=3;endSize=3;" edge="1" parent="1">
                    <mxGeometry relative="1" as="geometry">
                        <mxPoint x="704.8033893717675" y="861.6680340262669" as="sourcePoint"/>
                        <mxPoint x="703.0931999175161" y="866.5245553745817" as="targetPoint"/>
                    </mxGeometry>
                </mxCell>
            </root>
        </mxGraphModel>
    </diagram>
</mxfile>